<svg width="2396" height="97" viewBox="0 0 2396 97" fill="none" xmlns="http://www.w3.org/2000/svg">
<rect width="2396" height="97" fill="#7B2418"/>
<g clip-path="url(#clip0_951_2)">
<path fill-rule="evenodd" clip-rule="evenodd" d="M367.34 30.4504C367.34 28.7143 368.044 27.0492 369.296 25.8216C370.549 24.594 372.248 23.9043 374.02 23.9043H377.074C378.989 23.9043 380.659 25.183 381.124 27.0028L383.585 36.6539C383.784 37.4351 383.744 38.2565 383.469 39.0154C383.194 39.7742 382.697 40.4367 382.04 40.9198L379.161 43.0363C378.86 43.2567 378.796 43.5797 378.88 43.8044C380.137 47.1535 382.121 50.1949 384.696 52.7181C387.27 55.2413 390.374 57.186 393.791 58.4175C394.021 58.5004 394.348 58.4371 394.575 58.1425L396.735 55.3212C397.228 54.677 397.904 54.1897 398.678 53.9203C399.453 53.6509 400.291 53.6115 401.088 53.8069L410.936 56.218C412.793 56.674 414.098 58.3106 414.098 60.1893V63.1809C414.098 64.917 413.394 66.582 412.141 67.8096C410.889 69.0373 409.19 69.727 407.418 69.727H402.408C383.042 69.727 367.34 54.3393 367.34 35.36V30.4504Z" fill="white"/>
</g>
<path d="M453.584 49.484H447.12V56.108H443.728V49.484H437.264V46.412H443.728V39.788H447.12V46.412H453.584V49.484ZM471.148 41.58C470.913 40.5987 470.486 39.8627 469.868 39.372C469.249 38.8813 468.385 38.636 467.276 38.636C465.59 38.636 464.332 39.2867 463.5 40.588C462.668 41.868 462.23 44.0013 462.188 46.988C462.742 46.0493 463.553 45.324 464.62 44.812C465.686 44.3 466.838 44.044 468.076 44.044C469.484 44.044 470.721 44.3533 471.788 44.972C472.876 45.5693 473.718 46.444 474.316 47.596C474.934 48.748 475.244 50.124 475.244 51.724C475.244 53.2173 474.945 54.5507 474.348 55.724C473.772 56.8973 472.908 57.8253 471.756 58.508C470.604 59.1693 469.217 59.5 467.596 59.5C465.398 59.5 463.67 59.02 462.412 58.06C461.174 57.0787 460.3 55.7027 459.788 53.932C459.297 52.1613 459.052 49.9533 459.052 47.308C459.052 39.5 461.804 35.596 467.308 35.596C469.441 35.596 471.116 36.172 472.332 37.324C473.569 38.476 474.294 39.8947 474.508 41.58H471.148ZM467.276 47.116C465.974 47.116 464.865 47.5107 463.948 48.3C463.052 49.068 462.604 50.188 462.604 51.66C462.604 53.132 463.02 54.3053 463.852 55.18C464.705 56.0333 465.889 56.46 467.404 56.46C468.748 56.46 469.804 56.044 470.572 55.212C471.361 54.38 471.756 53.2707 471.756 51.884C471.756 50.4333 471.372 49.2813 470.604 48.428C469.857 47.5533 468.748 47.116 467.276 47.116ZM480.991 54.54C483.039 52.7693 484.65 51.3187 485.823 50.188C487.018 49.036 488.01 47.8413 488.799 46.604C489.588 45.3667 489.983 44.1293 489.983 42.892C489.983 41.612 489.674 40.6093 489.055 39.884C488.458 39.1587 487.508 38.796 486.207 38.796C484.948 38.796 483.967 39.2013 483.263 40.012C482.58 40.8013 482.218 41.868 482.175 43.212H478.655C478.719 40.78 479.444 38.924 480.831 37.644C482.239 36.3427 484.02 35.692 486.175 35.692C488.5 35.692 490.314 36.332 491.615 37.612C492.938 38.892 493.599 40.5987 493.599 42.732C493.599 44.268 493.204 45.7507 492.415 47.18C491.647 48.588 490.719 49.8573 489.631 50.988C488.564 52.0973 487.199 53.388 485.535 54.86L484.095 56.14H494.239V59.18H478.687V56.524L480.991 54.54ZM509.372 47.308C507.154 46.1987 506.044 44.4493 506.044 42.06C506.044 40.908 506.332 39.852 506.908 38.892C507.484 37.932 508.348 37.1747 509.5 36.62C510.652 36.044 512.06 35.756 513.724 35.756C515.367 35.756 516.764 36.044 517.916 36.62C519.09 37.1747 519.964 37.932 520.54 38.892C521.116 39.852 521.404 40.908 521.404 42.06C521.404 43.2547 521.095 44.3107 520.476 45.228C519.879 46.124 519.079 46.8173 518.076 47.308C519.292 47.756 520.252 48.492 520.956 49.516C521.66 50.5187 522.012 51.7027 522.012 53.068C522.012 54.4547 521.66 55.6813 520.956 56.748C520.252 57.8147 519.271 58.636 518.012 59.212C516.754 59.788 515.324 60.076 513.724 60.076C512.124 60.076 510.695 59.788 509.436 59.212C508.199 58.636 507.228 57.8147 506.524 56.748C505.82 55.6813 505.468 54.4547 505.468 53.068C505.468 51.6813 505.82 50.4867 506.524 49.484C507.228 48.4813 508.178 47.756 509.372 47.308ZM517.916 42.508C517.916 41.3133 517.543 40.396 516.796 39.756C516.05 39.116 515.026 38.796 513.724 38.796C512.444 38.796 511.431 39.116 510.684 39.756C509.938 40.396 509.564 41.324 509.564 42.54C509.564 43.6067 509.948 44.4813 510.716 45.164C511.506 45.8253 512.508 46.156 513.724 46.156C514.94 46.156 515.943 45.8147 516.732 45.132C517.522 44.4493 517.916 43.5747 517.916 42.508ZM513.724 48.908C512.316 48.908 511.164 49.26 510.268 49.964C509.394 50.6467 508.956 51.6387 508.956 52.94C508.956 54.156 509.383 55.148 510.236 55.916C511.09 56.6627 512.252 57.036 513.724 57.036C515.175 57.036 516.316 56.652 517.148 55.884C518.002 55.116 518.428 54.1347 518.428 52.94C518.428 51.66 517.991 50.668 517.116 49.964C516.263 49.26 515.132 48.908 513.724 48.908ZM525.202 39.5V36.172H531.858V59.5H528.178V39.5H525.202ZM536.23 39.5V36.172H542.886V59.5H539.206V39.5H536.23ZM568.434 41.58C568.199 40.5987 567.773 39.8627 567.154 39.372C566.535 38.8813 565.671 38.636 564.562 38.636C562.877 38.636 561.618 39.2867 560.786 40.588C559.954 41.868 559.517 44.0013 559.474 46.988C560.029 46.0493 560.839 45.324 561.906 44.812C562.973 44.3 564.125 44.044 565.362 44.044C566.77 44.044 568.007 44.3533 569.074 44.972C570.162 45.5693 571.005 46.444 571.602 47.596C572.221 48.748 572.53 50.124 572.53 51.724C572.53 53.2173 572.231 54.5507 571.634 55.724C571.058 56.8973 570.194 57.8253 569.042 58.508C567.89 59.1693 566.503 59.5 564.882 59.5C562.685 59.5 560.957 59.02 559.698 58.06C558.461 57.0787 557.586 55.7027 557.074 53.932C556.583 52.1613 556.338 49.9533 556.338 47.308C556.338 39.5 559.09 35.596 564.594 35.596C566.727 35.596 568.402 36.172 569.618 37.324C570.855 38.476 571.581 39.8947 571.794 41.58H568.434ZM564.562 47.116C563.261 47.116 562.151 47.5107 561.234 48.3C560.338 49.068 559.89 50.188 559.89 51.66C559.89 53.132 560.306 54.3053 561.138 55.18C561.991 56.0333 563.175 56.46 564.69 56.46C566.034 56.46 567.09 56.044 567.858 55.212C568.647 54.38 569.042 53.2707 569.042 51.884C569.042 50.4333 568.658 49.2813 567.89 48.428C567.143 47.5533 566.034 47.116 564.562 47.116ZM580.197 47.308C577.979 46.1987 576.869 44.4493 576.869 42.06C576.869 40.908 577.157 39.852 577.733 38.892C578.309 37.932 579.173 37.1747 580.325 36.62C581.477 36.044 582.885 35.756 584.549 35.756C586.192 35.756 587.589 36.044 588.741 36.62C589.915 37.1747 590.789 37.932 591.365 38.892C591.941 39.852 592.229 40.908 592.229 42.06C592.229 43.2547 591.92 44.3107 591.301 45.228C590.704 46.124 589.904 46.8173 588.901 47.308C590.117 47.756 591.077 48.492 591.781 49.516C592.485 50.5187 592.837 51.7027 592.837 53.068C592.837 54.4547 592.485 55.6813 591.781 56.748C591.077 57.8147 590.096 58.636 588.837 59.212C587.579 59.788 586.149 60.076 584.549 60.076C582.949 60.076 581.52 59.788 580.261 59.212C579.024 58.636 578.053 57.8147 577.349 56.748C576.645 55.6813 576.293 54.4547 576.293 53.068C576.293 51.6813 576.645 50.4867 577.349 49.484C578.053 48.4813 579.003 47.756 580.197 47.308ZM588.741 42.508C588.741 41.3133 588.368 40.396 587.621 39.756C586.875 39.116 585.851 38.796 584.549 38.796C583.269 38.796 582.256 39.116 581.509 39.756C580.763 40.396 580.389 41.324 580.389 42.54C580.389 43.6067 580.773 44.4813 581.541 45.164C582.331 45.8253 583.333 46.156 584.549 46.156C585.765 46.156 586.768 45.8147 587.557 45.132C588.347 44.4493 588.741 43.5747 588.741 42.508ZM584.549 48.908C583.141 48.908 581.989 49.26 581.093 49.964C580.219 50.6467 579.781 51.6387 579.781 52.94C579.781 54.156 580.208 55.148 581.061 55.916C581.915 56.6627 583.077 57.036 584.549 57.036C586 57.036 587.141 56.652 587.973 55.884C588.827 55.116 589.253 54.1347 589.253 52.94C589.253 51.66 588.816 50.668 587.941 49.964C587.088 49.26 585.957 48.908 584.549 48.908ZM596.507 47.532C596.507 43.8413 597.126 40.9613 598.363 38.892C599.622 36.8013 601.777 35.756 604.827 35.756C607.878 35.756 610.022 36.8013 611.259 38.892C612.518 40.9613 613.147 43.8413 613.147 47.532C613.147 51.2653 612.518 54.188 611.259 56.3C610.022 58.3907 607.878 59.436 604.827 59.436C601.777 59.436 599.622 58.3907 598.363 56.3C597.126 54.188 596.507 51.2653 596.507 47.532ZM609.563 47.532C609.563 45.804 609.446 44.3427 609.211 43.148C608.998 41.9533 608.55 40.9827 607.867 40.236C607.185 39.468 606.171 39.084 604.827 39.084C603.483 39.084 602.47 39.468 601.787 40.236C601.105 40.9827 600.646 41.9533 600.411 43.148C600.198 44.3427 600.091 45.804 600.091 47.532C600.091 49.324 600.198 50.828 600.411 52.044C600.625 53.26 601.073 54.2413 601.755 54.988C602.459 55.7347 603.483 56.108 604.827 56.108C606.171 56.108 607.185 55.7347 607.867 54.988C608.571 54.2413 609.03 53.26 609.243 52.044C609.457 50.828 609.563 49.324 609.563 47.532ZM616.848 47.532C616.848 43.8413 617.466 40.9613 618.704 38.892C619.962 36.8013 622.117 35.756 625.168 35.756C628.218 35.756 630.362 36.8013 631.6 38.892C632.858 40.9613 633.488 43.8413 633.488 47.532C633.488 51.2653 632.858 54.188 631.6 56.3C630.362 58.3907 628.218 59.436 625.168 59.436C622.117 59.436 619.962 58.3907 618.704 56.3C617.466 54.188 616.848 51.2653 616.848 47.532ZM629.904 47.532C629.904 45.804 629.786 44.3427 629.552 43.148C629.338 41.9533 628.89 40.9827 628.208 40.236C627.525 39.468 626.512 39.084 625.168 39.084C623.824 39.084 622.81 39.468 622.128 40.236C621.445 40.9827 620.986 41.9533 620.752 43.148C620.538 44.3427 620.432 45.804 620.432 47.532C620.432 49.324 620.538 50.828 620.752 52.044C620.965 53.26 621.413 54.2413 622.096 54.988C622.8 55.7347 623.824 56.108 625.168 56.108C626.512 56.108 627.525 55.7347 628.208 54.988C628.912 54.2413 629.37 53.26 629.584 52.044C629.797 50.828 629.904 49.324 629.904 47.532ZM645.34 47.532C645.34 43.8413 645.959 40.9613 647.196 38.892C648.455 36.8013 650.609 35.756 653.66 35.756C656.711 35.756 658.855 36.8013 660.092 38.892C661.351 40.9613 661.98 43.8413 661.98 47.532C661.98 51.2653 661.351 54.188 660.092 56.3C658.855 58.3907 656.711 59.436 653.66 59.436C650.609 59.436 648.455 58.3907 647.196 56.3C645.959 54.188 645.34 51.2653 645.34 47.532ZM658.396 47.532C658.396 45.804 658.279 44.3427 658.044 43.148C657.831 41.9533 657.383 40.9827 656.7 40.236C656.017 39.468 655.004 39.084 653.66 39.084C652.316 39.084 651.303 39.468 650.62 40.236C649.937 40.9827 649.479 41.9533 649.244 43.148C649.031 44.3427 648.924 45.804 648.924 47.532C648.924 49.324 649.031 50.828 649.244 52.044C649.457 53.26 649.905 54.2413 650.588 54.988C651.292 55.7347 652.316 56.108 653.66 56.108C655.004 56.108 656.017 55.7347 656.7 54.988C657.404 54.2413 657.863 53.26 658.076 52.044C658.289 50.828 658.396 49.324 658.396 47.532ZM680.72 39.308H670V45.676C670.448 45.0787 671.109 44.5773 671.984 44.172C672.88 43.7667 673.829 43.564 674.832 43.564C676.624 43.564 678.075 43.948 679.184 44.716C680.315 45.484 681.115 46.4547 681.584 47.628C682.075 48.8013 682.32 50.0387 682.32 51.34C682.32 52.9187 682.011 54.3267 681.392 55.564C680.795 56.78 679.888 57.74 678.672 58.444C677.477 59.148 676.005 59.5 674.256 59.5C671.931 59.5 670.064 58.924 668.656 57.772C667.248 56.62 666.405 55.0947 666.128 53.196H669.68C669.915 54.1987 670.437 54.9987 671.248 55.596C672.059 56.172 673.072 56.46 674.288 56.46C675.803 56.46 676.933 56.0013 677.68 55.084C678.448 54.1667 678.832 52.9507 678.832 51.436C678.832 49.9 678.448 48.7267 677.68 47.916C676.912 47.084 675.781 46.668 674.288 46.668C673.243 46.668 672.357 46.9347 671.632 47.468C670.928 47.98 670.416 48.684 670.096 49.58H666.64V36.108H680.72V39.308ZM685.958 47.532C685.958 43.8413 686.576 40.9613 687.814 38.892C689.072 36.8013 691.227 35.756 694.278 35.756C697.328 35.756 699.472 36.8013 700.71 38.892C701.968 40.9613 702.598 43.8413 702.598 47.532C702.598 51.2653 701.968 54.188 700.71 56.3C699.472 58.3907 697.328 59.436 694.278 59.436C691.227 59.436 689.072 58.3907 687.814 56.3C686.576 54.188 685.958 51.2653 685.958 47.532ZM699.014 47.532C699.014 45.804 698.896 44.3427 698.662 43.148C698.448 41.9533 698 40.9827 697.318 40.236C696.635 39.468 695.622 39.084 694.278 39.084C692.934 39.084 691.92 39.468 691.238 40.236C690.555 40.9827 690.096 41.9533 689.862 43.148C689.648 44.3427 689.542 45.804 689.542 47.532C689.542 49.324 689.648 50.828 689.862 52.044C690.075 53.26 690.523 54.2413 691.206 54.988C691.91 55.7347 692.934 56.108 694.278 56.108C695.622 56.108 696.635 55.7347 697.318 54.988C698.022 54.2413 698.48 53.26 698.694 52.044C698.907 50.828 699.014 49.324 699.014 47.532Z" fill="white"/>
<path d="M833.75 42.3945V58.1245C833.75 59.5832 834.54 60.9822 835.947 62.0136C837.353 63.0451 839.261 63.6245 841.25 63.6245H878.75C880.739 63.6245 882.647 63.0451 884.053 62.0136C885.46 60.9822 886.25 59.5832 886.25 58.1245V42.3945L863.93 52.465C862.748 52.9983 861.388 53.2806 860 53.2806C858.612 53.2806 857.252 52.9983 856.07 52.465L833.75 42.3945Z" fill="white"/>
<path d="M886.25 39.1647V38.875C886.25 37.4163 885.46 36.0174 884.053 34.9859C882.647 33.9545 880.739 33.375 878.75 33.375H841.25C839.261 33.375 837.353 33.9545 835.947 34.9859C834.54 36.0174 833.75 37.4163 833.75 38.875V39.1647L858.035 50.1243C858.626 50.3909 859.306 50.5321 860 50.5321C860.694 50.5321 861.374 50.3909 861.965 50.1243L886.25 39.1647Z" fill="white"/>
<path d="M911.184 50.604C911.184 48.8333 911.547 47.2653 912.272 45.9C913.019 44.5347 914.021 43.4787 915.28 42.732C916.56 41.964 917.968 41.58 919.504 41.58C920.891 41.58 922.096 41.8573 923.12 42.412C924.165 42.9453 924.997 43.6173 925.616 44.428V41.868H929.296V59.5H925.616V56.876C924.997 57.708 924.155 58.4013 923.088 58.956C922.021 59.5107 920.805 59.788 919.44 59.788C917.925 59.788 916.539 59.404 915.28 58.636C914.021 57.8467 913.019 56.7587 912.272 55.372C911.547 53.964 911.184 52.3747 911.184 50.604ZM925.616 50.668C925.616 49.452 925.36 48.396 924.848 47.5C924.357 46.604 923.707 45.9213 922.896 45.452C922.085 44.9827 921.211 44.748 920.272 44.748C919.333 44.748 918.459 44.9827 917.648 45.452C916.837 45.9 916.176 46.572 915.664 47.468C915.173 48.3427 914.928 49.388 914.928 50.604C914.928 51.82 915.173 52.8867 915.664 53.804C916.176 54.7213 916.837 55.4253 917.648 55.916C918.48 56.3853 919.355 56.62 920.272 56.62C921.211 56.62 922.085 56.3853 922.896 55.916C923.707 55.4467 924.357 54.764 924.848 53.868C925.36 52.9507 925.616 51.884 925.616 50.668ZM932.712 50.604C932.712 48.8333 933.074 47.2653 933.8 45.9C934.546 44.5347 935.549 43.4787 936.808 42.732C938.088 41.964 939.506 41.58 941.064 41.58C942.216 41.58 943.346 41.836 944.456 42.348C945.586 42.8387 946.482 43.5 947.144 44.332V35.82H950.824V59.5H947.144V56.844C946.546 57.6973 945.714 58.4013 944.648 58.956C943.602 59.5107 942.397 59.788 941.032 59.788C939.496 59.788 938.088 59.404 936.808 58.636C935.549 57.8467 934.546 56.7587 933.8 55.372C933.074 53.964 932.712 52.3747 932.712 50.604ZM947.144 50.668C947.144 49.452 946.888 48.396 946.376 47.5C945.885 46.604 945.234 45.9213 944.424 45.452C943.613 44.9827 942.738 44.748 941.8 44.748C940.861 44.748 939.986 44.9827 939.176 45.452C938.365 45.9 937.704 46.572 937.192 47.468C936.701 48.3427 936.456 49.388 936.456 50.604C936.456 51.82 936.701 52.8867 937.192 53.804C937.704 54.7213 938.365 55.4253 939.176 55.916C940.008 56.3853 940.882 56.62 941.8 56.62C942.738 56.62 943.613 56.3853 944.424 55.916C945.234 55.4467 945.885 54.764 946.376 53.868C946.888 52.9507 947.144 51.884 947.144 50.668ZM976.799 41.58C978.186 41.58 979.423 41.868 980.511 42.444C981.62 43.02 982.484 43.8733 983.103 45.004C983.743 46.1347 984.063 47.5 984.063 49.1V59.5H980.447V49.644C980.447 48.0653 980.052 46.86 979.263 46.028C978.474 45.1747 977.396 44.748 976.031 44.748C974.666 44.748 973.578 45.1747 972.767 46.028C971.978 46.86 971.583 48.0653 971.583 49.644V59.5H967.967V49.644C967.967 48.0653 967.572 46.86 966.783 46.028C965.994 45.1747 964.916 44.748 963.551 44.748C962.186 44.748 961.098 45.1747 960.287 46.028C959.498 46.86 959.103 48.0653 959.103 49.644V59.5H955.455V41.868H959.103V43.884C959.7 43.1587 960.458 42.5933 961.375 42.188C962.292 41.7827 963.274 41.58 964.319 41.58C965.727 41.58 966.986 41.8787 968.095 42.476C969.204 43.0733 970.058 43.9373 970.655 45.068C971.188 44.0013 972.02 43.1587 973.151 42.54C974.282 41.9 975.498 41.58 976.799 41.58ZM990.401 39.532C989.74 39.532 989.185 39.308 988.737 38.86C988.289 38.412 988.065 37.8573 988.065 37.196C988.065 36.5347 988.289 35.98 988.737 35.532C989.185 35.084 989.74 34.86 990.401 34.86C991.041 34.86 991.585 35.084 992.033 35.532C992.481 35.98 992.705 36.5347 992.705 37.196C992.705 37.8573 992.481 38.412 992.033 38.86C991.585 39.308 991.041 39.532 990.401 39.532ZM992.193 41.868V59.5H988.545V41.868H992.193ZM1005.72 41.58C1007.11 41.58 1008.34 41.868 1009.43 42.444C1010.54 43.02 1011.4 43.8733 1012.02 45.004C1012.64 46.1347 1012.95 47.5 1012.95 49.1V59.5H1009.33V49.644C1009.33 48.0653 1008.94 46.86 1008.15 46.028C1007.36 45.1747 1006.28 44.748 1004.92 44.748C1003.55 44.748 1002.47 45.1747 1001.65 46.028C1000.87 46.86 1000.47 48.0653 1000.47 49.644V59.5H996.823V41.868H1000.47V43.884C1001.07 43.1587 1001.83 42.5933 1002.74 42.188C1003.68 41.7827 1004.67 41.58 1005.72 41.58ZM1033.86 38.828C1036.29 38.828 1038.39 39.276 1040.16 40.172C1041.93 41.068 1043.28 42.3267 1044.2 43.948C1045.13 45.548 1045.6 47.4147 1045.6 49.548C1045.6 51.2547 1045.31 52.8867 1044.71 54.444C1044.13 56.0013 1043.29 57.2707 1042.18 58.252C1041.09 59.2333 1039.8 59.724 1038.31 59.724C1037.22 59.724 1036.37 59.4893 1035.75 59.02C1035.13 58.5293 1034.75 57.8467 1034.6 56.972C1033.93 57.8253 1033.1 58.4973 1032.1 58.988C1031.1 59.4787 1030.05 59.724 1028.96 59.724C1027.32 59.724 1026.03 59.2333 1025.09 58.252C1024.17 57.2493 1023.72 55.8947 1023.72 54.188C1023.72 52.5667 1024.05 51.052 1024.71 49.644C1025.39 48.236 1026.34 47.116 1027.56 46.284C1028.77 45.4307 1030.14 45.004 1031.65 45.004C1033.51 45.004 1034.81 45.6333 1035.56 46.892L1035.84 45.292H1039.01L1037.41 54.444C1037.35 54.892 1037.32 55.2867 1037.32 55.628C1037.32 56.1827 1037.42 56.5987 1037.64 56.876C1037.87 57.1533 1038.28 57.292 1038.85 57.292C1039.66 57.292 1040.36 56.8973 1040.93 56.108C1041.51 55.2973 1041.93 54.3053 1042.21 53.132C1042.51 51.9587 1042.66 50.8173 1042.66 49.708C1042.66 46.9987 1041.87 44.9293 1040.29 43.5C1038.71 42.0707 1036.42 41.356 1033.41 41.356C1030.89 41.356 1028.63 41.9533 1026.63 43.148C1024.64 44.3427 1023.09 45.9853 1021.96 48.076C1020.83 50.1667 1020.26 52.492 1020.26 55.052C1020.26 57.7827 1021.07 59.8627 1022.69 61.292C1024.31 62.7213 1026.63 63.436 1029.64 63.436C1031.66 63.436 1033.43 63.0627 1034.95 62.316L1035.43 64.748C1033.49 65.58 1031.31 65.996 1028.9 65.996C1026.57 65.996 1024.54 65.5587 1022.79 64.684C1021.04 63.8093 1019.68 62.5613 1018.72 60.94C1017.76 59.34 1017.28 57.4733 1017.28 55.34C1017.28 52.2893 1017.99 49.5053 1019.4 46.988C1020.83 44.4707 1022.8 42.4867 1025.32 41.036C1027.83 39.564 1030.68 38.828 1033.86 38.828ZM1030.08 56.908C1030.98 56.908 1031.79 56.652 1032.52 56.14C1033.26 55.6067 1033.85 54.9133 1034.28 54.06C1034.7 53.1853 1034.92 52.2573 1034.92 51.276C1034.92 50.252 1034.63 49.42 1034.05 48.78C1033.5 48.1187 1032.71 47.788 1031.68 47.788C1030.77 47.788 1029.96 48.076 1029.25 48.652C1028.57 49.2067 1028.04 49.932 1027.65 50.828C1027.29 51.724 1027.11 52.6627 1027.11 53.644C1027.11 54.6467 1027.35 55.4467 1027.84 56.044C1028.33 56.62 1029.08 56.908 1030.08 56.908ZM1057.2 41.58C1058.57 41.58 1059.77 41.8573 1060.82 42.412C1061.88 42.9453 1062.71 43.6173 1063.31 44.428V41.868H1066.99V59.788C1066.99 61.4093 1066.65 62.8493 1065.97 64.108C1065.29 65.388 1064.29 66.3907 1062.99 67.116C1061.71 67.8413 1060.18 68.204 1058.38 68.204C1055.99 68.204 1054.01 67.6387 1052.43 66.508C1050.85 65.3987 1049.96 63.884 1049.74 61.964H1053.36C1053.64 62.8813 1054.22 63.6173 1055.12 64.172C1056.04 64.748 1057.13 65.036 1058.38 65.036C1059.86 65.036 1061.04 64.588 1061.94 63.692C1062.85 62.796 1063.31 61.4947 1063.31 59.788V56.844C1062.69 57.676 1061.85 58.38 1060.78 58.956C1059.74 59.5107 1058.54 59.788 1057.2 59.788C1055.66 59.788 1054.26 59.404 1052.98 58.636C1051.72 57.8467 1050.71 56.7587 1049.97 55.372C1049.24 53.964 1048.88 52.3747 1048.88 50.604C1048.88 48.8333 1049.24 47.2653 1049.97 45.9C1050.71 44.5347 1051.72 43.4787 1052.98 42.732C1054.26 41.964 1055.66 41.58 1057.2 41.58ZM1063.31 50.668C1063.31 49.452 1063.06 48.396 1062.54 47.5C1062.05 46.604 1061.4 45.9213 1060.59 45.452C1059.78 44.9827 1058.91 44.748 1057.97 44.748C1057.03 44.748 1056.15 44.9827 1055.34 45.452C1054.53 45.9 1053.87 46.572 1053.36 47.468C1052.87 48.3427 1052.62 49.388 1052.62 50.604C1052.62 51.82 1052.87 52.8867 1053.36 53.804C1053.87 54.7213 1054.53 55.4253 1055.34 55.916C1056.18 56.3853 1057.05 56.62 1057.97 56.62C1058.91 56.62 1059.78 56.3853 1060.59 55.916C1061.4 55.4467 1062.05 54.764 1062.54 53.868C1063.06 52.9507 1063.31 51.884 1063.31 50.668ZM1087.78 50.252C1087.78 50.9133 1087.74 51.5107 1087.66 52.044H1074.18C1074.29 53.452 1074.81 54.5827 1075.75 55.436C1076.69 56.2893 1077.84 56.716 1079.21 56.716C1081.17 56.716 1082.56 55.8947 1083.37 54.252H1087.3C1086.77 55.8733 1085.8 57.2067 1084.39 58.252C1083.01 59.276 1081.28 59.788 1079.21 59.788C1077.52 59.788 1076.01 59.4147 1074.66 58.668C1073.34 57.9 1072.3 56.8333 1071.53 55.468C1070.78 54.0813 1070.41 52.4813 1070.41 50.668C1070.41 48.8547 1070.77 47.2653 1071.5 45.9C1072.24 44.5133 1073.28 43.4467 1074.6 42.7C1075.94 41.9533 1077.48 41.58 1079.21 41.58C1080.87 41.58 1082.35 41.9427 1083.66 42.668C1084.96 43.3933 1085.97 44.4173 1086.7 45.74C1087.42 47.0413 1087.78 48.5453 1087.78 50.252ZM1083.98 49.1C1083.95 47.756 1083.47 46.6787 1082.54 45.868C1081.6 45.0573 1080.43 44.652 1079.05 44.652C1077.79 44.652 1076.71 45.0573 1075.82 45.868C1074.92 46.6573 1074.39 47.7347 1074.22 49.1H1083.98ZM1098.86 59.788C1097.2 59.788 1095.69 59.4147 1094.35 58.668C1093.01 57.9 1091.95 56.8333 1091.18 55.468C1090.41 54.0813 1090.03 52.4813 1090.03 50.668C1090.03 48.876 1090.42 47.2867 1091.21 45.9C1092 44.5133 1093.08 43.4467 1094.45 42.7C1095.81 41.9533 1097.34 41.58 1099.02 41.58C1100.71 41.58 1102.23 41.9533 1103.6 42.7C1104.96 43.4467 1106.04 44.5133 1106.83 45.9C1107.62 47.2867 1108.01 48.876 1108.01 50.668C1108.01 52.46 1107.61 54.0493 1106.8 55.436C1105.99 56.8227 1104.88 57.9 1103.47 58.668C1102.08 59.4147 1100.55 59.788 1098.86 59.788ZM1098.86 56.62C1099.8 56.62 1100.68 56.396 1101.49 55.948C1102.32 55.5 1102.99 54.828 1103.5 53.932C1104.01 53.036 1104.27 51.948 1104.27 50.668C1104.27 49.388 1104.02 48.3107 1103.53 47.436C1103.04 46.54 1102.39 45.868 1101.58 45.42C1100.77 44.972 1099.9 44.748 1098.96 44.748C1098.02 44.748 1097.14 44.972 1096.33 45.42C1095.54 45.868 1094.92 46.54 1094.45 47.436C1093.98 48.3107 1093.74 49.388 1093.74 50.668C1093.74 52.5667 1094.22 54.0387 1095.18 55.084C1096.16 56.108 1097.39 56.62 1098.86 56.62ZM1132.8 41.58C1134.19 41.58 1135.43 41.868 1136.52 42.444C1137.63 43.02 1138.49 43.8733 1139.11 45.004C1139.75 46.1347 1140.07 47.5 1140.07 49.1V59.5H1136.45V49.644C1136.45 48.0653 1136.06 46.86 1135.27 46.028C1134.48 45.1747 1133.4 44.748 1132.04 44.748C1130.67 44.748 1129.58 45.1747 1128.77 46.028C1127.98 46.86 1127.59 48.0653 1127.59 49.644V59.5H1123.97V49.644C1123.97 48.0653 1123.58 46.86 1122.79 46.028C1122 45.1747 1120.92 44.748 1119.56 44.748C1118.19 44.748 1117.1 45.1747 1116.29 46.028C1115.5 46.86 1115.11 48.0653 1115.11 49.644V59.5H1111.46V41.868H1115.11V43.884C1115.71 43.1587 1116.46 42.5933 1117.38 42.188C1118.3 41.7827 1119.28 41.58 1120.32 41.58C1121.73 41.58 1122.99 41.8787 1124.1 42.476C1125.21 43.0733 1126.06 43.9373 1126.66 45.068C1127.19 44.0013 1128.03 43.1587 1129.16 42.54C1130.29 41.9 1131.5 41.58 1132.8 41.58ZM1160.52 41.868V59.5H1156.87V57.42C1156.29 58.1453 1155.54 58.7213 1154.6 59.148C1153.68 59.5533 1152.7 59.756 1151.65 59.756C1150.27 59.756 1149.02 59.468 1147.91 58.892C1146.82 58.316 1145.96 57.4627 1145.32 56.332C1144.7 55.2013 1144.39 53.836 1144.39 52.236V41.868H1148.01V51.692C1148.01 53.2707 1148.4 54.4867 1149.19 55.34C1149.98 56.172 1151.06 56.588 1152.42 56.588C1153.79 56.588 1154.86 56.172 1155.65 55.34C1156.46 54.4867 1156.87 53.2707 1156.87 51.692V41.868H1160.52ZM1163.96 50.604C1163.96 48.8333 1164.32 47.2653 1165.04 45.9C1165.79 44.5347 1166.79 43.4787 1168.05 42.732C1169.33 41.964 1170.75 41.58 1172.31 41.58C1173.46 41.58 1174.59 41.836 1175.7 42.348C1176.83 42.8387 1177.73 43.5 1178.39 44.332V35.82H1182.07V59.5H1178.39V56.844C1177.79 57.6973 1176.96 58.4013 1175.89 58.956C1174.85 59.5107 1173.64 59.788 1172.28 59.788C1170.74 59.788 1169.33 59.404 1168.05 58.636C1166.79 57.8467 1165.79 56.7587 1165.04 55.372C1164.32 53.964 1163.96 52.3747 1163.96 50.604ZM1178.39 50.668C1178.39 49.452 1178.13 48.396 1177.62 47.5C1177.13 46.604 1176.48 45.9213 1175.67 45.452C1174.86 44.9827 1173.98 44.748 1173.04 44.748C1172.1 44.748 1171.23 44.9827 1170.42 45.452C1169.61 45.9 1168.95 46.572 1168.44 47.468C1167.94 48.3427 1167.7 49.388 1167.7 50.604C1167.7 51.82 1167.94 52.8867 1168.44 53.804C1168.95 54.7213 1169.61 55.4253 1170.42 55.916C1171.25 56.3853 1172.13 56.62 1173.04 56.62C1173.98 56.62 1174.86 56.3853 1175.67 55.916C1176.48 55.4467 1177.13 54.764 1177.62 53.868C1178.13 52.9507 1178.39 51.884 1178.39 50.668ZM1185.48 50.604C1185.48 48.8333 1185.85 47.2653 1186.57 45.9C1187.32 44.5347 1188.32 43.4787 1189.58 42.732C1190.86 41.964 1192.27 41.58 1193.8 41.58C1195.19 41.58 1196.39 41.8573 1197.42 42.412C1198.46 42.9453 1199.3 43.6173 1199.91 44.428V41.868H1203.59V59.5H1199.91V56.876C1199.3 57.708 1198.45 58.4013 1197.39 58.956C1196.32 59.5107 1195.1 59.788 1193.74 59.788C1192.22 59.788 1190.84 59.404 1189.58 58.636C1188.32 57.8467 1187.32 56.7587 1186.57 55.372C1185.85 53.964 1185.48 52.3747 1185.48 50.604ZM1199.91 50.668C1199.91 49.452 1199.66 48.396 1199.15 47.5C1198.66 46.604 1198.01 45.9213 1197.19 45.452C1196.38 44.9827 1195.51 44.748 1194.57 44.748C1193.63 44.748 1192.76 44.9827 1191.95 45.452C1191.14 45.9 1190.47 46.572 1189.96 47.468C1189.47 48.3427 1189.23 49.388 1189.23 50.604C1189.23 51.82 1189.47 52.8867 1189.96 53.804C1190.47 54.7213 1191.14 55.4253 1191.95 55.916C1192.78 56.3853 1193.65 56.62 1194.57 56.62C1195.51 56.62 1196.38 56.3853 1197.19 55.916C1198.01 55.4467 1198.66 54.764 1199.15 53.868C1199.66 52.9507 1199.91 51.884 1199.91 50.668ZM1209.7 59.724C1209.04 59.724 1208.48 59.5 1208.03 59.052C1207.59 58.604 1207.36 58.0493 1207.36 57.388C1207.36 56.7267 1207.59 56.172 1208.03 55.724C1208.48 55.276 1209.04 55.052 1209.7 55.052C1210.34 55.052 1210.88 55.276 1211.33 55.724C1211.78 56.172 1212 56.7267 1212 57.388C1212 58.0493 1211.78 58.604 1211.33 59.052C1210.88 59.5 1210.34 59.724 1209.7 59.724ZM1217.64 39.532C1216.98 39.532 1216.43 39.308 1215.98 38.86C1215.53 38.412 1215.31 37.8573 1215.31 37.196C1215.31 36.5347 1215.53 35.98 1215.98 35.532C1216.43 35.084 1216.98 34.86 1217.64 34.86C1218.28 34.86 1218.83 35.084 1219.27 35.532C1219.72 35.98 1219.95 36.5347 1219.95 37.196C1219.95 37.8573 1219.72 38.412 1219.27 38.86C1218.83 39.308 1218.28 39.532 1217.64 39.532ZM1219.43 41.868V59.5H1215.79V41.868H1219.43ZM1222.85 50.604C1222.85 48.8333 1223.21 47.2653 1223.93 45.9C1224.68 44.5347 1225.68 43.4787 1226.94 42.732C1228.22 41.964 1229.64 41.58 1231.2 41.58C1232.35 41.58 1233.48 41.836 1234.59 42.348C1235.72 42.8387 1236.62 43.5 1237.28 44.332V35.82H1240.96V59.5H1237.28V56.844C1236.68 57.6973 1235.85 58.4013 1234.78 58.956C1233.74 59.5107 1232.53 59.788 1231.17 59.788C1229.63 59.788 1228.22 59.404 1226.94 58.636C1225.68 57.8467 1224.68 56.7587 1223.93 55.372C1223.21 53.964 1222.85 52.3747 1222.85 50.604ZM1237.28 50.668C1237.28 49.452 1237.02 48.396 1236.51 47.5C1236.02 46.604 1235.37 45.9213 1234.56 45.452C1233.75 44.9827 1232.87 44.748 1231.93 44.748C1231 44.748 1230.12 44.9827 1229.31 45.452C1228.5 45.9 1227.84 46.572 1227.33 47.468C1226.84 48.3427 1226.59 49.388 1226.59 50.604C1226.59 51.82 1226.84 52.8867 1227.33 53.804C1227.84 54.7213 1228.5 55.4253 1229.31 55.916C1230.14 56.3853 1231.02 56.62 1231.93 56.62C1232.87 56.62 1233.75 56.3853 1234.56 55.916C1235.37 55.4467 1236.02 54.764 1236.51 53.868C1237.02 52.9507 1237.28 51.884 1237.28 50.668Z" fill="white"/>
<path fill-rule="evenodd" clip-rule="evenodd" d="M1392.97 24.5C1379.73 24.5 1369 35.2306 1369 48.4688C1369 61.7069 1379.73 72.4375 1392.97 72.4375C1406.21 72.4375 1416.94 61.7069 1416.94 48.4688C1416.94 35.2306 1406.21 24.5 1392.97 24.5ZM1374.72 57.3187C1376.73 61.4801 1380.11 64.8274 1384.29 66.8059C1388.47 68.7844 1393.2 69.2751 1397.7 68.1969C1397.35 67.2763 1396.73 66.4831 1395.92 65.923C1395.12 65.363 1394.16 65.0628 1393.17 65.0625C1392.6 65.0627 1392.05 64.8596 1391.61 64.4896C1391.17 64.1195 1390.88 63.6064 1390.79 63.0417L1390.61 61.9675C1390.38 60.5785 1391.22 59.2387 1392.58 58.8528L1395.01 58.1595C1396.06 57.8571 1396.93 57.1319 1397.42 56.1535L1397.51 55.974C1397.76 55.4675 1398.13 55.0284 1398.59 54.693C1399.05 54.3575 1399.58 54.1354 1400.14 54.0449C1400.69 53.9544 1401.27 53.998 1401.81 54.1723C1402.35 54.3466 1402.83 54.6465 1403.23 55.0472L1404.03 55.8437H1405.58C1406.58 55.8435 1407.56 56.1146 1408.42 56.628C1409.27 57.1414 1409.98 57.878 1410.45 58.7593C1412.18 55.8162 1413.14 52.4833 1413.24 49.0695C1413.35 45.6557 1412.58 42.2718 1411.03 39.2314C1409.47 36.1911 1407.17 33.5929 1404.35 31.6777C1401.52 29.7625 1398.25 28.5925 1394.85 28.276C1394.96 28.9201 1395.29 29.5125 1395.81 29.9378L1398.43 32.1258C1399.52 33.0329 1399.75 34.6087 1398.96 35.7887L1397.71 37.6717C1397.03 38.6949 1396.02 39.4614 1394.86 39.8498L1394.51 39.9678C1394.11 40.1005 1393.75 40.3227 1393.45 40.6174C1393.15 40.9121 1392.93 41.2712 1392.79 41.6669C1392.66 42.0626 1392.62 42.4842 1392.67 42.8989C1392.72 43.3137 1392.87 43.7105 1393.1 44.0585C1394.01 45.4229 1393.52 47.2715 1392.05 48.0041L1385.59 51.2344L1386.63 53.8377C1386.84 54.3665 1386.85 54.9534 1386.66 55.4895C1386.47 56.0257 1386.1 56.4747 1385.6 56.7532C1385.1 57.0318 1384.52 57.1211 1383.97 57.0045C1383.41 56.8879 1382.91 56.5733 1382.57 56.1191L1380.9 53.8918C1380.62 53.5148 1380.25 53.2164 1379.82 53.0248C1379.38 52.8333 1378.91 52.755 1378.44 52.7973C1377.97 52.8397 1377.52 53.0013 1377.13 53.2669C1376.74 53.5324 1376.43 53.8931 1376.22 54.3147L1374.72 57.3187Z" fill="white"/>
<path d="M1446.44 41.58C1447.81 41.58 1449.01 41.8573 1450.06 42.412C1451.12 42.9453 1451.96 43.6173 1452.55 44.428V41.868H1456.23V59.788C1456.23 61.4093 1455.89 62.8493 1455.21 64.108C1454.53 65.388 1453.53 66.3907 1452.23 67.116C1450.95 67.8413 1449.42 68.204 1447.63 68.204C1445.24 68.204 1443.25 67.6387 1441.67 66.508C1440.09 65.3987 1439.2 63.884 1438.99 61.964H1442.6C1442.88 62.8813 1443.47 63.6173 1444.36 64.172C1445.28 64.748 1446.37 65.036 1447.63 65.036C1449.1 65.036 1450.28 64.588 1451.18 63.692C1452.09 62.796 1452.55 61.4947 1452.55 59.788V56.844C1451.93 57.676 1451.09 58.38 1450.03 58.956C1448.98 59.5107 1447.79 59.788 1446.44 59.788C1444.91 59.788 1443.5 59.404 1442.22 58.636C1440.96 57.8467 1439.96 56.7587 1439.21 55.372C1438.48 53.964 1438.12 52.3747 1438.12 50.604C1438.12 48.8333 1438.48 47.2653 1439.21 45.9C1439.96 44.5347 1440.96 43.4787 1442.22 42.732C1443.5 41.964 1444.91 41.58 1446.44 41.58ZM1452.55 50.668C1452.55 49.452 1452.3 48.396 1451.79 47.5C1451.29 46.604 1450.64 45.9213 1449.83 45.452C1449.02 44.9827 1448.15 44.748 1447.21 44.748C1446.27 44.748 1445.4 44.9827 1444.59 45.452C1443.77 45.9 1443.11 46.572 1442.6 47.468C1442.11 48.3427 1441.87 49.388 1441.87 50.604C1441.87 51.82 1442.11 52.8867 1442.6 53.804C1443.11 54.7213 1443.77 55.4253 1444.59 55.916C1445.42 56.3853 1446.29 56.62 1447.21 56.62C1448.15 56.62 1449.02 56.3853 1449.83 55.916C1450.64 55.4467 1451.29 54.764 1451.79 53.868C1452.3 52.9507 1452.55 51.884 1452.55 50.668ZM1477.03 50.252C1477.03 50.9133 1476.98 51.5107 1476.9 52.044H1463.43C1463.53 53.452 1464.05 54.5827 1464.99 55.436C1465.93 56.2893 1467.08 56.716 1468.45 56.716C1470.41 56.716 1471.8 55.8947 1472.61 54.252H1476.55C1476.01 55.8733 1475.04 57.2067 1473.63 58.252C1472.25 59.276 1470.52 59.788 1468.45 59.788C1466.76 59.788 1465.25 59.4147 1463.91 58.668C1462.58 57.9 1461.54 56.8333 1460.77 55.468C1460.02 54.0813 1459.65 52.4813 1459.65 50.668C1459.65 48.8547 1460.01 47.2653 1460.74 45.9C1461.48 44.5133 1462.52 43.4467 1463.84 42.7C1465.19 41.9533 1466.72 41.58 1468.45 41.58C1470.11 41.58 1471.6 41.9427 1472.9 42.668C1474.2 43.3933 1475.21 44.4173 1475.94 45.74C1476.66 47.0413 1477.03 48.5453 1477.03 50.252ZM1473.22 49.1C1473.2 47.756 1472.72 46.6787 1471.78 45.868C1470.84 45.0573 1469.68 44.652 1468.29 44.652C1467.03 44.652 1465.95 45.0573 1465.06 45.868C1464.16 46.6573 1463.63 47.7347 1463.46 49.1H1473.22ZM1488.1 59.788C1486.44 59.788 1484.94 59.4147 1483.59 58.668C1482.25 57.9 1481.19 56.8333 1480.42 55.468C1479.66 54.0813 1479.27 52.4813 1479.27 50.668C1479.27 48.876 1479.67 47.2867 1480.46 45.9C1481.24 44.5133 1482.32 43.4467 1483.69 42.7C1485.05 41.9533 1486.58 41.58 1488.26 41.58C1489.95 41.58 1491.47 41.9533 1492.84 42.7C1494.2 43.4467 1495.28 44.5133 1496.07 45.9C1496.86 47.2867 1497.26 48.876 1497.26 50.668C1497.26 52.46 1496.85 54.0493 1496.04 55.436C1495.23 56.8227 1494.12 57.9 1492.71 58.668C1491.32 59.4147 1489.79 59.788 1488.1 59.788ZM1488.1 56.62C1489.04 56.62 1489.92 56.396 1490.73 55.948C1491.56 55.5 1492.23 54.828 1492.74 53.932C1493.26 53.036 1493.51 51.948 1493.51 50.668C1493.51 49.388 1493.27 48.3107 1492.78 47.436C1492.28 46.54 1491.63 45.868 1490.82 45.42C1490.01 44.972 1489.14 44.748 1488.2 44.748C1487.26 44.748 1486.39 44.972 1485.58 45.42C1484.79 45.868 1484.16 46.54 1483.69 47.436C1483.22 48.3107 1482.98 49.388 1482.98 50.668C1482.98 52.5667 1483.46 54.0387 1484.42 55.084C1485.4 56.108 1486.63 56.62 1488.1 56.62ZM1522.05 41.58C1523.43 41.58 1524.67 41.868 1525.76 42.444C1526.87 43.02 1527.73 43.8733 1528.35 45.004C1528.99 46.1347 1529.31 47.5 1529.31 49.1V59.5H1525.69V49.644C1525.69 48.0653 1525.3 46.86 1524.51 46.028C1523.72 45.1747 1522.64 44.748 1521.28 44.748C1519.91 44.748 1518.82 45.1747 1518.01 46.028C1517.22 46.86 1516.83 48.0653 1516.83 49.644V59.5H1513.21V49.644C1513.21 48.0653 1512.82 46.86 1512.03 46.028C1511.24 45.1747 1510.16 44.748 1508.8 44.748C1507.43 44.748 1506.34 45.1747 1505.53 46.028C1504.74 46.86 1504.35 48.0653 1504.35 49.644V59.5H1500.7V41.868H1504.35V43.884C1504.95 43.1587 1505.7 42.5933 1506.62 42.188C1507.54 41.7827 1508.52 41.58 1509.57 41.58C1510.97 41.58 1512.23 41.8787 1513.34 42.476C1514.45 43.0733 1515.3 43.9373 1515.9 45.068C1516.43 44.0013 1517.27 43.1587 1518.4 42.54C1519.53 41.9 1520.74 41.58 1522.05 41.58ZM1549.76 41.868V59.5H1546.11V57.42C1545.54 58.1453 1544.78 58.7213 1543.84 59.148C1542.92 59.5533 1541.94 59.756 1540.9 59.756C1539.51 59.756 1538.26 59.468 1537.15 58.892C1536.06 58.316 1535.2 57.4627 1534.56 56.332C1533.94 55.2013 1533.63 53.836 1533.63 52.236V41.868H1537.25V51.692C1537.25 53.2707 1537.64 54.4867 1538.43 55.34C1539.22 56.172 1540.3 56.588 1541.66 56.588C1543.03 56.588 1544.11 56.172 1544.9 55.34C1545.71 54.4867 1546.11 53.2707 1546.11 51.692V41.868H1549.76ZM1553.2 50.604C1553.2 48.8333 1553.56 47.2653 1554.28 45.9C1555.03 44.5347 1556.03 43.4787 1557.29 42.732C1558.57 41.964 1559.99 41.58 1561.55 41.58C1562.7 41.58 1563.83 41.836 1564.94 42.348C1566.07 42.8387 1566.97 43.5 1567.63 44.332V35.82H1571.31V59.5H1567.63V56.844C1567.03 57.6973 1566.2 58.4013 1565.13 58.956C1564.09 59.5107 1562.88 59.788 1561.52 59.788C1559.98 59.788 1558.57 59.404 1557.29 58.636C1556.03 57.8467 1555.03 56.7587 1554.28 55.372C1553.56 53.964 1553.2 52.3747 1553.2 50.604ZM1567.63 50.668C1567.63 49.452 1567.37 48.396 1566.86 47.5C1566.37 46.604 1565.72 45.9213 1564.91 45.452C1564.1 44.9827 1563.22 44.748 1562.28 44.748C1561.35 44.748 1560.47 44.9827 1559.66 45.452C1558.85 45.9 1558.19 46.572 1557.68 47.468C1557.19 48.3427 1556.94 49.388 1556.94 50.604C1556.94 51.82 1557.19 52.8867 1557.68 53.804C1558.19 54.7213 1558.85 55.4253 1559.66 55.916C1560.49 56.3853 1561.37 56.62 1562.28 56.62C1563.22 56.62 1564.1 56.3853 1564.91 55.916C1565.72 55.4467 1566.37 54.764 1566.86 53.868C1567.37 52.9507 1567.63 51.884 1567.63 50.668ZM1574.72 50.604C1574.72 48.8333 1575.09 47.2653 1575.81 45.9C1576.56 44.5347 1577.56 43.4787 1578.82 42.732C1580.1 41.964 1581.51 41.58 1583.04 41.58C1584.43 41.58 1585.64 41.8573 1586.66 42.412C1587.71 42.9453 1588.54 43.6173 1589.16 44.428V41.868H1592.84V59.5H1589.16V56.876C1588.54 57.708 1587.69 58.4013 1586.63 58.956C1585.56 59.5107 1584.35 59.788 1582.98 59.788C1581.47 59.788 1580.08 59.404 1578.82 58.636C1577.56 57.8467 1576.56 56.7587 1575.81 55.372C1575.09 53.964 1574.72 52.3747 1574.72 50.604ZM1589.16 50.668C1589.16 49.452 1588.9 48.396 1588.39 47.5C1587.9 46.604 1587.25 45.9213 1586.44 45.452C1585.63 44.9827 1584.75 44.748 1583.81 44.748C1582.87 44.748 1582 44.9827 1581.19 45.452C1580.38 45.9 1579.72 46.572 1579.2 47.468C1578.71 48.3427 1578.47 49.388 1578.47 50.604C1578.47 51.82 1578.71 52.8867 1579.2 53.804C1579.72 54.7213 1580.38 55.4253 1581.19 55.916C1582.02 56.3853 1582.89 56.62 1583.81 56.62C1584.75 56.62 1585.63 56.3853 1586.44 55.916C1587.25 55.4467 1587.9 54.764 1588.39 53.868C1588.9 52.9507 1589.16 51.884 1589.16 50.668ZM1598.94 59.724C1598.28 59.724 1597.72 59.5 1597.28 59.052C1596.83 58.604 1596.6 58.0493 1596.6 57.388C1596.6 56.7267 1596.83 56.172 1597.28 55.724C1597.72 55.276 1598.28 55.052 1598.94 55.052C1599.58 55.052 1600.12 55.276 1600.57 55.724C1601.02 56.172 1601.24 56.7267 1601.24 57.388C1601.24 58.0493 1601.02 58.604 1600.57 59.052C1600.12 59.5 1599.58 59.724 1598.94 59.724ZM1606.88 39.532C1606.22 39.532 1605.67 39.308 1605.22 38.86C1604.77 38.412 1604.55 37.8573 1604.55 37.196C1604.55 36.5347 1604.77 35.98 1605.22 35.532C1605.67 35.084 1606.22 34.86 1606.88 34.86C1607.52 34.86 1608.07 35.084 1608.51 35.532C1608.96 35.98 1609.19 36.5347 1609.19 37.196C1609.19 37.8573 1608.96 38.412 1608.51 38.86C1608.07 39.308 1607.52 39.532 1606.88 39.532ZM1608.67 41.868V59.5H1605.03V41.868H1608.67ZM1612.09 50.604C1612.09 48.8333 1612.45 47.2653 1613.18 45.9C1613.92 44.5347 1614.93 43.4787 1616.18 42.732C1617.46 41.964 1618.88 41.58 1620.44 41.58C1621.59 41.58 1622.72 41.836 1623.83 42.348C1624.96 42.8387 1625.86 43.5 1626.52 44.332V35.82H1630.2V59.5H1626.52V56.844C1625.92 57.6973 1625.09 58.4013 1624.02 58.956C1622.98 59.5107 1621.77 59.788 1620.41 59.788C1618.87 59.788 1617.46 59.404 1616.18 58.636C1614.93 57.8467 1613.92 56.7587 1613.18 55.372C1612.45 53.964 1612.09 52.3747 1612.09 50.604ZM1626.52 50.668C1626.52 49.452 1626.26 48.396 1625.75 47.5C1625.26 46.604 1624.61 45.9213 1623.8 45.452C1622.99 44.9827 1622.11 44.748 1621.18 44.748C1620.24 44.748 1619.36 44.9827 1618.55 45.452C1617.74 45.9 1617.08 46.572 1616.57 47.468C1616.08 48.3427 1615.83 49.388 1615.83 50.604C1615.83 51.82 1616.08 52.8867 1616.57 53.804C1617.08 54.7213 1617.74 55.4253 1618.55 55.916C1619.38 56.3853 1620.26 56.62 1621.18 56.62C1622.11 56.62 1622.99 56.3853 1623.8 55.916C1624.61 55.4467 1625.26 54.764 1625.75 53.868C1626.26 52.9507 1626.52 51.884 1626.52 50.668Z" fill="white"/>
<path d="M1787.44 40.8197C1783.21 40.8197 1779.76 44.271 1779.76 48.5001C1779.76 52.7292 1783.21 56.1804 1787.44 56.1804C1791.67 56.1804 1795.12 52.7292 1795.12 48.5001C1795.12 44.271 1791.67 40.8197 1787.44 40.8197ZM1810.47 48.5001C1810.47 45.3196 1810.5 42.1679 1810.32 38.9932C1810.14 35.3057 1809.3 32.0331 1806.61 29.3366C1803.9 26.6343 1800.64 25.7989 1796.95 25.6203C1793.77 25.4417 1790.62 25.4705 1787.44 25.4705C1784.26 25.4705 1781.11 25.4417 1777.94 25.6203C1774.25 25.7989 1770.98 26.6401 1768.28 29.3366C1765.58 32.0388 1764.74 35.3057 1764.56 38.9932C1764.39 42.1737 1764.41 45.3253 1764.41 48.5001C1764.41 51.6748 1764.39 54.8322 1764.56 58.0069C1764.74 61.6944 1765.58 64.967 1768.28 67.6635C1770.98 70.3658 1774.25 71.2012 1777.94 71.3798C1781.12 71.5584 1784.27 71.5296 1787.44 71.5296C1790.62 71.5296 1793.78 71.5584 1796.95 71.3798C1800.64 71.2012 1803.91 70.36 1806.61 67.6635C1809.31 64.9613 1810.14 61.6944 1810.32 58.0069C1810.51 54.8322 1810.47 51.6805 1810.47 48.5001ZM1787.44 60.3173C1780.9 60.3173 1775.62 55.0396 1775.62 48.5001C1775.62 41.9605 1780.9 36.6828 1787.44 36.6828C1793.98 36.6828 1799.25 41.9605 1799.25 48.5001C1799.25 55.0396 1793.98 60.3173 1787.44 60.3173ZM1799.74 38.9586C1798.21 38.9586 1796.98 37.7256 1796.98 36.1988C1796.98 34.6719 1798.21 33.4389 1799.74 33.4389C1801.27 33.4389 1802.5 34.6719 1802.5 36.1988C1802.5 36.5613 1802.43 36.9204 1802.29 37.2555C1802.15 37.5905 1801.95 37.8949 1801.69 38.1513C1801.44 38.4077 1801.13 38.611 1800.8 38.7495C1800.46 38.888 1800.1 38.9591 1799.74 38.9586Z" fill="white"/>
<path d="M1846.44 41.58C1847.81 41.58 1849.01 41.8573 1850.06 42.412C1851.12 42.9453 1851.96 43.6173 1852.55 44.428V41.868H1856.23V59.788C1856.23 61.4093 1855.89 62.8493 1855.21 64.108C1854.53 65.388 1853.53 66.3907 1852.23 67.116C1850.95 67.8413 1849.42 68.204 1847.63 68.204C1845.24 68.204 1843.25 67.6387 1841.67 66.508C1840.09 65.3987 1839.2 63.884 1838.99 61.964H1842.6C1842.88 62.8813 1843.47 63.6173 1844.36 64.172C1845.28 64.748 1846.37 65.036 1847.63 65.036C1849.1 65.036 1850.28 64.588 1851.18 63.692C1852.09 62.796 1852.55 61.4947 1852.55 59.788V56.844C1851.93 57.676 1851.09 58.38 1850.03 58.956C1848.98 59.5107 1847.79 59.788 1846.44 59.788C1844.91 59.788 1843.5 59.404 1842.22 58.636C1840.96 57.8467 1839.96 56.7587 1839.21 55.372C1838.48 53.964 1838.12 52.3747 1838.12 50.604C1838.12 48.8333 1838.48 47.2653 1839.21 45.9C1839.96 44.5347 1840.96 43.4787 1842.22 42.732C1843.5 41.964 1844.91 41.58 1846.44 41.58ZM1852.55 50.668C1852.55 49.452 1852.3 48.396 1851.79 47.5C1851.29 46.604 1850.64 45.9213 1849.83 45.452C1849.02 44.9827 1848.15 44.748 1847.21 44.748C1846.27 44.748 1845.4 44.9827 1844.59 45.452C1843.77 45.9 1843.11 46.572 1842.6 47.468C1842.11 48.3427 1841.87 49.388 1841.87 50.604C1841.87 51.82 1842.11 52.8867 1842.6 53.804C1843.11 54.7213 1843.77 55.4253 1844.59 55.916C1845.42 56.3853 1846.29 56.62 1847.21 56.62C1848.15 56.62 1849.02 56.3853 1849.83 55.916C1850.64 55.4467 1851.29 54.764 1851.79 53.868C1852.3 52.9507 1852.55 51.884 1852.55 50.668ZM1877.03 50.252C1877.03 50.9133 1876.98 51.5107 1876.9 52.044H1863.43C1863.53 53.452 1864.05 54.5827 1864.99 55.436C1865.93 56.2893 1867.08 56.716 1868.45 56.716C1870.41 56.716 1871.8 55.8947 1872.61 54.252H1876.55C1876.01 55.8733 1875.04 57.2067 1873.63 58.252C1872.25 59.276 1870.52 59.788 1868.45 59.788C1866.76 59.788 1865.25 59.4147 1863.91 58.668C1862.58 57.9 1861.54 56.8333 1860.77 55.468C1860.02 54.0813 1859.65 52.4813 1859.65 50.668C1859.65 48.8547 1860.01 47.2653 1860.74 45.9C1861.48 44.5133 1862.52 43.4467 1863.84 42.7C1865.19 41.9533 1866.72 41.58 1868.45 41.58C1870.11 41.58 1871.6 41.9427 1872.9 42.668C1874.2 43.3933 1875.21 44.4173 1875.94 45.74C1876.66 47.0413 1877.03 48.5453 1877.03 50.252ZM1873.22 49.1C1873.2 47.756 1872.72 46.6787 1871.78 45.868C1870.84 45.0573 1869.68 44.652 1868.29 44.652C1867.03 44.652 1865.95 45.0573 1865.06 45.868C1864.16 46.6573 1863.63 47.7347 1863.46 49.1H1873.22ZM1888.1 59.788C1886.44 59.788 1884.94 59.4147 1883.59 58.668C1882.25 57.9 1881.19 56.8333 1880.42 55.468C1879.66 54.0813 1879.27 52.4813 1879.27 50.668C1879.27 48.876 1879.67 47.2867 1880.46 45.9C1881.24 44.5133 1882.32 43.4467 1883.69 42.7C1885.05 41.9533 1886.58 41.58 1888.26 41.58C1889.95 41.58 1891.47 41.9533 1892.84 42.7C1894.2 43.4467 1895.28 44.5133 1896.07 45.9C1896.86 47.2867 1897.26 48.876 1897.26 50.668C1897.26 52.46 1896.85 54.0493 1896.04 55.436C1895.23 56.8227 1894.12 57.9 1892.71 58.668C1891.32 59.4147 1889.79 59.788 1888.1 59.788ZM1888.1 56.62C1889.04 56.62 1889.92 56.396 1890.73 55.948C1891.56 55.5 1892.23 54.828 1892.74 53.932C1893.26 53.036 1893.51 51.948 1893.51 50.668C1893.51 49.388 1893.27 48.3107 1892.78 47.436C1892.28 46.54 1891.63 45.868 1890.82 45.42C1890.01 44.972 1889.14 44.748 1888.2 44.748C1887.26 44.748 1886.39 44.972 1885.58 45.42C1884.79 45.868 1884.16 46.54 1883.69 47.436C1883.22 48.3107 1882.98 49.388 1882.98 50.668C1882.98 52.5667 1883.46 54.0387 1884.42 55.084C1885.4 56.108 1886.63 56.62 1888.1 56.62ZM1922.05 41.58C1923.43 41.58 1924.67 41.868 1925.76 42.444C1926.87 43.02 1927.73 43.8733 1928.35 45.004C1928.99 46.1347 1929.31 47.5 1929.31 49.1V59.5H1925.69V49.644C1925.69 48.0653 1925.3 46.86 1924.51 46.028C1923.72 45.1747 1922.64 44.748 1921.28 44.748C1919.91 44.748 1918.82 45.1747 1918.01 46.028C1917.22 46.86 1916.83 48.0653 1916.83 49.644V59.5H1913.21V49.644C1913.21 48.0653 1912.82 46.86 1912.03 46.028C1911.24 45.1747 1910.16 44.748 1908.8 44.748C1907.43 44.748 1906.34 45.1747 1905.53 46.028C1904.74 46.86 1904.35 48.0653 1904.35 49.644V59.5H1900.7V41.868H1904.35V43.884C1904.95 43.1587 1905.7 42.5933 1906.62 42.188C1907.54 41.7827 1908.52 41.58 1909.57 41.58C1910.97 41.58 1912.23 41.8787 1913.34 42.476C1914.45 43.0733 1915.3 43.9373 1915.9 45.068C1916.43 44.0013 1917.27 43.1587 1918.4 42.54C1919.53 41.9 1920.74 41.58 1922.05 41.58ZM1949.76 41.868V59.5H1946.11V57.42C1945.54 58.1453 1944.78 58.7213 1943.84 59.148C1942.92 59.5533 1941.94 59.756 1940.9 59.756C1939.51 59.756 1938.26 59.468 1937.15 58.892C1936.06 58.316 1935.2 57.4627 1934.56 56.332C1933.94 55.2013 1933.63 53.836 1933.63 52.236V41.868H1937.25V51.692C1937.25 53.2707 1937.64 54.4867 1938.43 55.34C1939.22 56.172 1940.3 56.588 1941.66 56.588C1943.03 56.588 1944.11 56.172 1944.9 55.34C1945.71 54.4867 1946.11 53.2707 1946.11 51.692V41.868H1949.76ZM1953.2 50.604C1953.2 48.8333 1953.56 47.2653 1954.28 45.9C1955.03 44.5347 1956.03 43.4787 1957.29 42.732C1958.57 41.964 1959.99 41.58 1961.55 41.58C1962.7 41.58 1963.83 41.836 1964.94 42.348C1966.07 42.8387 1966.97 43.5 1967.63 44.332V35.82H1971.31V59.5H1967.63V56.844C1967.03 57.6973 1966.2 58.4013 1965.13 58.956C1964.09 59.5107 1962.88 59.788 1961.52 59.788C1959.98 59.788 1958.57 59.404 1957.29 58.636C1956.03 57.8467 1955.03 56.7587 1954.28 55.372C1953.56 53.964 1953.2 52.3747 1953.2 50.604ZM1967.63 50.668C1967.63 49.452 1967.37 48.396 1966.86 47.5C1966.37 46.604 1965.72 45.9213 1964.91 45.452C1964.1 44.9827 1963.22 44.748 1962.28 44.748C1961.35 44.748 1960.47 44.9827 1959.66 45.452C1958.85 45.9 1958.19 46.572 1957.68 47.468C1957.19 48.3427 1956.94 49.388 1956.94 50.604C1956.94 51.82 1957.19 52.8867 1957.68 53.804C1958.19 54.7213 1958.85 55.4253 1959.66 55.916C1960.49 56.3853 1961.37 56.62 1962.28 56.62C1963.22 56.62 1964.1 56.3853 1964.91 55.916C1965.72 55.4467 1966.37 54.764 1966.86 53.868C1967.37 52.9507 1967.63 51.884 1967.63 50.668ZM1974.72 50.604C1974.72 48.8333 1975.09 47.2653 1975.81 45.9C1976.56 44.5347 1977.56 43.4787 1978.82 42.732C1980.1 41.964 1981.51 41.58 1983.04 41.58C1984.43 41.58 1985.64 41.8573 1986.66 42.412C1987.71 42.9453 1988.54 43.6173 1989.16 44.428V41.868H1992.84V59.5H1989.16V56.876C1988.54 57.708 1987.69 58.4013 1986.63 58.956C1985.56 59.5107 1984.35 59.788 1982.98 59.788C1981.47 59.788 1980.08 59.404 1978.82 58.636C1977.56 57.8467 1976.56 56.7587 1975.81 55.372C1975.09 53.964 1974.72 52.3747 1974.72 50.604ZM1989.16 50.668C1989.16 49.452 1988.9 48.396 1988.39 47.5C1987.9 46.604 1987.25 45.9213 1986.44 45.452C1985.63 44.9827 1984.75 44.748 1983.81 44.748C1982.87 44.748 1982 44.9827 1981.19 45.452C1980.38 45.9 1979.72 46.572 1979.2 47.468C1978.71 48.3427 1978.47 49.388 1978.47 50.604C1978.47 51.82 1978.71 52.8867 1979.2 53.804C1979.72 54.7213 1980.38 55.4253 1981.19 55.916C1982.02 56.3853 1982.89 56.62 1983.81 56.62C1984.75 56.62 1985.63 56.3853 1986.44 55.916C1987.25 55.4467 1987.9 54.764 1988.39 53.868C1988.9 52.9507 1989.16 51.884 1989.16 50.668ZM1998.94 59.724C1998.28 59.724 1997.72 59.5 1997.28 59.052C1996.83 58.604 1996.6 58.0493 1996.6 57.388C1996.6 56.7267 1996.83 56.172 1997.28 55.724C1997.72 55.276 1998.28 55.052 1998.94 55.052C1999.58 55.052 2000.12 55.276 2000.57 55.724C2001.02 56.172 2001.24 56.7267 2001.24 57.388C2001.24 58.0493 2001.02 58.604 2000.57 59.052C2000.12 59.5 1999.58 59.724 1998.94 59.724ZM2006.88 39.532C2006.22 39.532 2005.67 39.308 2005.22 38.86C2004.77 38.412 2004.55 37.8573 2004.55 37.196C2004.55 36.5347 2004.77 35.98 2005.22 35.532C2005.67 35.084 2006.22 34.86 2006.88 34.86C2007.52 34.86 2008.07 35.084 2008.51 35.532C2008.96 35.98 2009.19 36.5347 2009.19 37.196C2009.19 37.8573 2008.96 38.412 2008.51 38.86C2008.07 39.308 2007.52 39.532 2006.88 39.532ZM2008.67 41.868V59.5H2005.03V41.868H2008.67ZM2012.09 50.604C2012.09 48.8333 2012.45 47.2653 2013.18 45.9C2013.92 44.5347 2014.93 43.4787 2016.18 42.732C2017.46 41.964 2018.88 41.58 2020.44 41.58C2021.59 41.58 2022.72 41.836 2023.83 42.348C2024.96 42.8387 2025.86 43.5 2026.52 44.332V35.82H2030.2V59.5H2026.52V56.844C2025.92 57.6973 2025.09 58.4013 2024.02 58.956C2022.98 59.5107 2021.77 59.788 2020.41 59.788C2018.87 59.788 2017.46 59.404 2016.18 58.636C2014.93 57.8467 2013.92 56.7587 2013.18 55.372C2012.45 53.964 2012.09 52.3747 2012.09 50.604ZM2026.52 50.668C2026.52 49.452 2026.26 48.396 2025.75 47.5C2025.26 46.604 2024.61 45.9213 2023.8 45.452C2022.99 44.9827 2022.11 44.748 2021.18 44.748C2020.24 44.748 2019.36 44.9827 2018.55 45.452C2017.74 45.9 2017.08 46.572 2016.57 47.468C2016.08 48.3427 2015.83 49.388 2015.83 50.604C2015.83 51.82 2016.08 52.8867 2016.57 53.804C2017.08 54.7213 2017.74 55.4253 2018.55 55.916C2019.38 56.3853 2020.26 56.62 2021.18 56.62C2022.11 56.62 2022.99 56.3853 2023.8 55.916C2024.61 55.4467 2025.26 54.764 2025.75 53.868C2026.26 52.9507 2026.52 51.884 2026.52 50.668Z" fill="white"/>
<defs>
<clipPath id="clip0_951_2">
<rect width="50" height="49" fill="white" transform="translate(364 24)"/>
</clipPath>
</defs>
</svg>
