<svg width="302" height="238" viewBox="0 0 302 238" fill="none" xmlns="http://www.w3.org/2000/svg">
<path d="M22.224 178L10.032 163.072V178H3.312V144.496H10.032V159.52L22.224 144.496H30.336L16.512 161.104L30.72 178H22.224ZM49.8761 151.024C51.8921 151.024 53.6841 151.472 55.2521 152.368C56.8201 153.232 58.0361 154.528 58.9001 156.256C59.7961 157.952 60.2441 160 60.2441 162.4V178H53.5241V163.312C53.5241 161.2 52.9961 159.584 51.9401 158.464C50.8841 157.312 49.4441 156.736 47.6201 156.736C45.7641 156.736 44.2921 157.312 43.2041 158.464C42.1481 159.584 41.6201 161.2 41.6201 163.312V178H34.9001V142.48H41.6201V154.72C42.4841 153.568 43.6361 152.672 45.0761 152.032C46.5161 151.36 48.1161 151.024 49.8761 151.024ZM64.6665 164.608C64.6665 161.92 65.1945 159.536 66.2505 157.456C67.3385 155.376 68.7945 153.776 70.6185 152.656C72.4745 151.536 74.5385 150.976 76.8105 150.976C78.7945 150.976 80.5225 151.376 81.9945 152.176C83.4985 152.976 84.6985 153.984 85.5945 155.2V151.408H92.3625V178H85.5945V174.112C84.7305 175.36 83.5305 176.4 81.9945 177.232C80.4905 178.032 78.7465 178.432 76.7625 178.432C74.5225 178.432 72.4745 177.856 70.6185 176.704C68.7945 175.552 67.3385 173.936 66.2505 171.856C65.1945 169.744 64.6665 167.328 64.6665 164.608ZM85.5945 164.704C85.5945 163.072 85.2745 161.68 84.6345 160.528C83.9945 159.344 83.1305 158.448 82.0425 157.84C80.9545 157.2 79.7865 156.88 78.5385 156.88C77.2905 156.88 76.1385 157.184 75.0825 157.792C74.0265 158.4 73.1625 159.296 72.4905 160.48C71.8505 161.632 71.5305 163.008 71.5305 164.608C71.5305 166.208 71.8505 167.616 72.4905 168.832C73.1625 170.016 74.0265 170.928 75.0825 171.568C76.1705 172.208 77.3225 172.528 78.5385 172.528C79.7865 172.528 80.9545 172.224 82.0425 171.616C83.1305 170.976 83.9945 170.08 84.6345 168.928C85.2745 167.744 85.5945 166.336 85.5945 164.704ZM105.406 142.48V178H98.6857V142.48H105.406ZM115.213 148.24C114.029 148.24 113.037 147.872 112.237 147.136C111.469 146.368 111.085 145.424 111.085 144.304C111.085 143.184 111.469 142.256 112.237 141.52C113.037 140.752 114.029 140.368 115.213 140.368C116.397 140.368 117.373 140.752 118.141 141.52C118.941 142.256 119.341 143.184 119.341 144.304C119.341 145.424 118.941 146.368 118.141 147.136C117.373 147.872 116.397 148.24 115.213 148.24ZM118.525 151.408V178H111.805V151.408H118.525ZM137.117 156.928H132.461V178H125.645V156.928H122.621V151.408H125.645V150.064C125.645 146.8 126.573 144.4 128.429 142.864C130.285 141.328 133.085 140.608 136.829 140.704V146.368C135.197 146.336 134.061 146.608 133.421 147.184C132.781 147.76 132.461 148.8 132.461 150.304V151.408H137.117V156.928ZM172.973 171.616H159.629L157.421 178H150.365L162.413 144.448H170.237L182.285 178H175.181L172.973 171.616ZM171.149 166.24L166.301 152.224L161.453 166.24H171.149ZM193.268 142.48V178H186.548V142.48H193.268ZM231.553 144.496V149.92H217.585V158.512H228.289V163.84H217.585V178H210.865V144.496H231.553ZM234.35 164.608C234.35 161.92 234.878 159.536 235.934 157.456C237.022 155.376 238.478 153.776 240.302 152.656C242.158 151.536 244.222 150.976 246.494 150.976C248.478 150.976 250.206 151.376 251.678 152.176C253.182 152.976 254.382 153.984 255.278 155.2V151.408H262.046V178H255.278V174.112C254.414 175.36 253.214 176.4 251.678 177.232C250.174 178.032 248.43 178.432 246.446 178.432C244.206 178.432 242.158 177.856 240.302 176.704C238.478 175.552 237.022 173.936 235.934 171.856C234.878 169.744 234.35 167.328 234.35 164.608ZM255.278 164.704C255.278 163.072 254.958 161.68 254.318 160.528C253.678 159.344 252.814 158.448 251.726 157.84C250.638 157.2 249.47 156.88 248.222 156.88C246.974 156.88 245.822 157.184 244.766 157.792C243.71 158.4 242.846 159.296 242.174 160.48C241.534 161.632 241.214 163.008 241.214 164.608C241.214 166.208 241.534 167.616 242.174 168.832C242.846 170.016 243.71 170.928 244.766 171.568C245.854 172.208 247.006 172.528 248.222 172.528C249.47 172.528 250.638 172.224 251.726 171.616C252.814 170.976 253.678 170.08 254.318 168.928C254.958 167.744 255.278 166.336 255.278 164.704ZM271.777 148.24C270.593 148.24 269.601 147.872 268.801 147.136C268.033 146.368 267.649 145.424 267.649 144.304C267.649 143.184 268.033 142.256 268.801 141.52C269.601 140.752 270.593 140.368 271.777 140.368C272.961 140.368 273.937 140.752 274.705 141.52C275.505 142.256 275.905 143.184 275.905 144.304C275.905 145.424 275.505 146.368 274.705 147.136C273.937 147.872 272.961 148.24 271.777 148.24ZM275.089 151.408V178H268.369V151.408H275.089ZM287.633 172.48H299.489V178H280.001V172.576L291.617 156.928H280.049V151.408H299.345V156.832L287.633 172.48Z" fill="black"/>
<path d="M39.2 222L27.72 209.28V222H24.08V194.12H27.72V207.04L39.24 194.12H43.84L31.2 208.08L43.96 222H39.2ZM67.8253 210.2C67.8253 210.893 67.7853 211.627 67.7053 212.4H50.1853C50.3186 214.56 51.052 216.253 52.3853 217.48C53.7453 218.68 55.3853 219.28 57.3053 219.28C58.8786 219.28 60.1853 218.92 61.2253 218.2C62.292 217.453 63.0386 216.467 63.4653 215.24H67.3853C66.7986 217.347 65.6253 219.067 63.8653 220.4C62.1053 221.707 59.9186 222.36 57.3053 222.36C55.2253 222.36 53.3586 221.893 51.7053 220.96C50.0786 220.027 48.7986 218.707 47.8653 217C46.932 215.267 46.4653 213.267 46.4653 211C46.4653 208.733 46.9186 206.747 47.8253 205.04C48.732 203.333 49.9986 202.027 51.6253 201.12C53.2786 200.187 55.172 199.72 57.3053 199.72C59.3853 199.72 61.2253 200.173 62.8253 201.08C64.4253 201.987 65.652 203.24 66.5053 204.84C67.3853 206.413 67.8253 208.2 67.8253 210.2ZM64.0653 209.44C64.0653 208.053 63.7586 206.867 63.1453 205.88C62.532 204.867 61.692 204.107 60.6253 203.6C59.5853 203.067 58.4253 202.8 57.1453 202.8C55.3053 202.8 53.732 203.387 52.4253 204.56C51.1453 205.733 50.412 207.36 50.2253 209.44H64.0653ZM76.87 203.08V216C76.87 217.067 77.0967 217.827 77.55 218.28C78.0033 218.707 78.79 218.92 79.91 218.92H82.59V222H79.31C77.2833 222 75.7633 221.533 74.75 220.6C73.7367 219.667 73.23 218.133 73.23 216V203.08H70.39V200.08H73.23V194.56H76.87V200.08H82.59V203.08H76.87ZM106.24 200.08V222H102.6V218.76C101.907 219.88 100.934 220.76 99.6803 221.4C98.4536 222.013 97.0936 222.32 95.6003 222.32C93.8936 222.32 92.3603 221.973 91.0003 221.28C89.6403 220.56 88.5603 219.493 87.7603 218.08C86.987 216.667 86.6003 214.947 86.6003 212.92V200.08H90.2003V212.44C90.2003 214.6 90.747 216.267 91.8403 217.44C92.9336 218.587 94.427 219.16 96.3203 219.16C98.267 219.16 99.8003 218.56 100.92 217.36C102.04 216.16 102.6 214.413 102.6 212.12V200.08H106.24ZM110.826 210.96C110.826 208.72 111.28 206.76 112.186 205.08C113.093 203.373 114.333 202.053 115.906 201.12C117.506 200.187 119.28 199.72 121.226 199.72C123.146 199.72 124.813 200.133 126.226 200.96C127.64 201.787 128.693 202.827 129.386 204.08V200.08H133.066V222H129.386V217.92C128.666 219.2 127.586 220.267 126.146 221.12C124.733 221.947 123.08 222.36 121.186 222.36C119.24 222.36 117.48 221.88 115.906 220.92C114.333 219.96 113.093 218.613 112.186 216.88C111.28 215.147 110.826 213.173 110.826 210.96ZM129.386 211C129.386 209.347 129.053 207.907 128.386 206.68C127.72 205.453 126.813 204.52 125.666 203.88C124.546 203.213 123.306 202.88 121.946 202.88C120.586 202.88 119.346 203.2 118.226 203.84C117.106 204.48 116.213 205.413 115.546 206.64C114.88 207.867 114.546 209.307 114.546 210.96C114.546 212.64 114.88 214.107 115.546 215.36C116.213 216.587 117.106 217.533 118.226 218.2C119.346 218.84 120.586 219.16 121.946 219.16C123.306 219.16 124.546 218.84 125.666 218.2C126.813 217.533 127.72 216.587 128.386 215.36C129.053 214.107 129.386 212.653 129.386 211ZM153.042 194.12V211.76C153.042 214.24 153.642 216.08 154.842 217.28C156.068 218.48 157.762 219.08 159.922 219.08C162.055 219.08 163.722 218.48 164.922 217.28C166.148 216.08 166.762 214.24 166.762 211.76V194.12H170.402V211.72C170.402 214.04 169.935 216 169.002 217.6C168.068 219.173 166.802 220.347 165.202 221.12C163.628 221.893 161.855 222.28 159.882 222.28C157.908 222.28 156.122 221.893 154.522 221.12C152.948 220.347 151.695 219.173 150.762 217.6C149.855 216 149.402 214.04 149.402 211.72V194.12H153.042ZM202.634 199.68C204.34 199.68 205.86 200.04 207.194 200.76C208.527 201.453 209.58 202.507 210.354 203.92C211.127 205.333 211.514 207.053 211.514 209.08V222H207.914V209.6C207.914 207.413 207.367 205.747 206.274 204.6C205.207 203.427 203.754 202.84 201.914 202.84C200.02 202.84 198.514 203.453 197.394 204.68C196.274 205.88 195.714 207.627 195.714 209.92V222H192.114V209.6C192.114 207.413 191.567 205.747 190.474 204.6C189.407 203.427 187.954 202.84 186.114 202.84C184.22 202.84 182.714 203.453 181.594 204.68C180.474 205.88 179.914 207.627 179.914 209.92V222H176.274V200.08H179.914V203.24C180.634 202.093 181.594 201.213 182.794 200.6C184.02 199.987 185.367 199.68 186.834 199.68C188.674 199.68 190.3 200.093 191.714 200.92C193.127 201.747 194.18 202.96 194.874 204.56C195.487 203.013 196.5 201.813 197.914 200.96C199.327 200.107 200.9 199.68 202.634 199.68ZM236.725 200.08V222H233.085V218.76C232.391 219.88 231.418 220.76 230.165 221.4C228.938 222.013 227.578 222.32 226.085 222.32C224.378 222.32 222.845 221.973 221.485 221.28C220.125 220.56 219.045 219.493 218.245 218.08C217.471 216.667 217.085 214.947 217.085 212.92V200.08H220.685V212.44C220.685 214.6 221.231 216.267 222.325 217.44C223.418 218.587 224.911 219.16 226.805 219.16C228.751 219.16 230.285 218.56 231.405 217.36C232.525 216.16 233.085 214.413 233.085 212.12V200.08H236.725ZM269.031 199.68C270.737 199.68 272.257 200.04 273.591 200.76C274.924 201.453 275.977 202.507 276.751 203.92C277.524 205.333 277.911 207.053 277.911 209.08V222H274.311V209.6C274.311 207.413 273.764 205.747 272.671 204.6C271.604 203.427 270.151 202.84 268.311 202.84C266.417 202.84 264.911 203.453 263.791 204.68C262.671 205.88 262.111 207.627 262.111 209.92V222H258.511V209.6C258.511 207.413 257.964 205.747 256.871 204.6C255.804 203.427 254.351 202.84 252.511 202.84C250.617 202.84 249.111 203.453 247.991 204.68C246.871 205.88 246.311 207.627 246.311 209.92V222H242.671V200.08H246.311V203.24C247.031 202.093 247.991 201.213 249.191 200.6C250.417 199.987 251.764 199.68 253.231 199.68C255.071 199.68 256.697 200.093 258.111 200.92C259.524 201.747 260.577 202.96 261.271 204.56C261.884 203.013 262.897 201.813 264.311 200.96C265.724 200.107 267.297 199.68 269.031 199.68Z" fill="black"/>
<path d="M78.6622 2C83.8888 33.0062 89.053 64.2098 95.4049 95.007C96.1468 98.6041 97.746 101.888 98.4555 105.436M111.972 5.23157C111.972 13.4738 109.394 22.1205 106.321 29.7012C102.919 38.0919 97.3063 45.7808 90.7134 51.9792M90.7134 51.9792C90.4561 52.221 90.1974 52.4606 89.9373 52.6978C85.2242 56.9961 75.9693 63.989 68.9247 60.6639C67.247 59.8721 65.7043 58.1449 65.1671 56.3652C63.7939 51.8167 71.2578 50.8303 73.9148 50.5935C79.5553 50.0909 85.1949 50.7719 90.7134 51.9792ZM90.7134 51.9792C93.0547 52.4914 95.3743 53.0984 97.663 53.7499C106.313 56.2125 115.942 59.3274 123.034 65.113C129.945 70.7497 133.354 79.2746 137.734 86.7568C138.574 88.1908 138.562 87.2602 138.816 86.1857C139.403 83.7106 140.195 81.3032 140.861 78.8508C142.277 73.6339 141.519 68.2244 141.853 62.8885C142.31 55.5617 144.032 64.8266 144.438 66.9467C144.605 67.8197 146.44 76.3864 146.722 75.9349C148.878 72.4854 148.374 66.749 148.767 62.8283C149.253 57.9647 151.652 69.5684 151.773 70.2233C153.122 77.568 153.518 70.1346 153.847 66.9166C154.144 64.0076 153.369 59.9093 154.598 57.1769C155.273 55.6766 155.797 62.7348 155.801 63.2492C155.844 69.0266 155.638 74.8198 155.831 80.5944C156.031 86.6071 158.756 77.6919 159.047 76.476C159.816 73.2689 160.442 70.0233 161.122 66.7964C161.331 65.8008 161.72 62.9094 162.023 63.8805C162.978 66.9341 162.133 70.4329 162.955 73.5901C163.712 76.4972 164.048 77.2358 166.893 76.2055C171.999 74.3567 175.047 70.0207 176.988 65.1796M176.988 65.1796C177.384 64.1909 177.734 63.181 178.046 62.167C178.109 61.9613 178.178 61.4087 178.254 60.6638M176.988 65.1796C176.859 65.2177 176.731 65.2556 176.603 65.2933C175.33 65.6677 175.297 65.377 175.821 64.3915C176.524 63.0719 177.339 61.8259 178.254 60.6638M176.988 65.1796C179.182 64.5276 181.337 63.8312 183.487 63.1391M178.254 60.6638C178.534 57.8951 178.901 52.4706 179.369 52.3371C180.265 52.081 181.138 54.533 181.805 56.981M178.254 60.6638C179.313 59.3183 180.504 58.0854 181.805 56.981M181.805 56.981C182.367 59.0395 182.783 61.0952 182.946 61.5357C183.05 61.8163 183.237 62.3927 183.487 63.1391M181.805 56.981C184.211 54.9395 186.993 53.3376 190.01 52.2769C193.896 50.9109 204.455 48.0522 207.926 52.0665C208.801 53.0778 208.115 55.2351 207.09 57.2809M183.487 63.1391C184.508 66.1843 186.574 72.058 188.267 72.2073C189.607 72.3256 192.593 70.3697 193.407 69.9227C197.36 67.7522 201.408 65.2956 204.289 61.7461C204.818 61.0939 206.109 59.2384 207.09 57.2809M183.487 63.1391C187.564 61.8272 191.624 60.5309 195.902 59.5818C199.616 58.7578 203.348 57.9949 207.09 57.2809M207.09 57.2809C213.222 56.1108 219.383 55.072 225.542 54.1107C225.886 54.057 234.904 52.7123 236.665 52.6677C237.332 52.6508 235.928 53.8521 235.342 54.1708C215.235 65.0967 194.814 75.3973 174.198 85.3139" stroke="black" stroke-width="4" stroke-linecap="round"/>
</svg>
