<svg width="302" height="113" viewBox="0 0 302 113" fill="none" xmlns="http://www.w3.org/2000/svg">
<path d="M22.224 53L10.032 38.072V53H3.312V19.496H10.032V34.52L22.224 19.496H30.336L16.512 36.104L30.72 53H22.224ZM49.8761 26.024C51.8921 26.024 53.6841 26.472 55.2521 27.368C56.8201 28.232 58.0361 29.528 58.9001 31.256C59.7961 32.952 60.2441 35 60.2441 37.4V53H53.5241V38.312C53.5241 36.2 52.9961 34.584 51.9401 33.464C50.8841 32.312 49.4441 31.736 47.6201 31.736C45.7641 31.736 44.2921 32.312 43.2041 33.464C42.1481 34.584 41.6201 36.2 41.6201 38.312V53H34.9001V17.48H41.6201V29.72C42.4841 28.568 43.6361 27.672 45.0761 27.032C46.5161 26.36 48.1161 26.024 49.8761 26.024ZM64.6665 39.608C64.6665 36.92 65.1945 34.536 66.2505 32.456C67.3385 30.376 68.7945 28.776 70.6185 27.656C72.4745 26.536 74.5385 25.976 76.8105 25.976C78.7945 25.976 80.5225 26.376 81.9945 27.176C83.4985 27.976 84.6985 28.984 85.5945 30.2V26.408H92.3625V53H85.5945V49.112C84.7305 50.36 83.5305 51.4 81.9945 52.232C80.4905 53.032 78.7465 53.432 76.7625 53.432C74.5225 53.432 72.4745 52.856 70.6185 51.704C68.7945 50.552 67.3385 48.936 66.2505 46.856C65.1945 44.744 64.6665 42.328 64.6665 39.608ZM85.5945 39.704C85.5945 38.072 85.2745 36.68 84.6345 35.528C83.9945 34.344 83.1305 33.448 82.0425 32.84C80.9545 32.2 79.7865 31.88 78.5385 31.88C77.2905 31.88 76.1385 32.184 75.0825 32.792C74.0265 33.4 73.1625 34.296 72.4905 35.48C71.8505 36.632 71.5305 38.008 71.5305 39.608C71.5305 41.208 71.8505 42.616 72.4905 43.832C73.1625 45.016 74.0265 45.928 75.0825 46.568C76.1705 47.208 77.3225 47.528 78.5385 47.528C79.7865 47.528 80.9545 47.224 82.0425 46.616C83.1305 45.976 83.9945 45.08 84.6345 43.928C85.2745 42.744 85.5945 41.336 85.5945 39.704ZM105.406 17.48V53H98.6857V17.48H105.406ZM115.213 23.24C114.029 23.24 113.037 22.872 112.237 22.136C111.469 21.368 111.085 20.424 111.085 19.304C111.085 18.184 111.469 17.256 112.237 16.52C113.037 15.752 114.029 15.368 115.213 15.368C116.397 15.368 117.373 15.752 118.141 16.52C118.941 17.256 119.341 18.184 119.341 19.304C119.341 20.424 118.941 21.368 118.141 22.136C117.373 22.872 116.397 23.24 115.213 23.24ZM118.525 26.408V53H111.805V26.408H118.525ZM137.117 31.928H132.461V53H125.645V31.928H122.621V26.408H125.645V25.064C125.645 21.8 126.573 19.4 128.429 17.864C130.285 16.328 133.085 15.608 136.829 15.704V21.368C135.197 21.336 134.061 21.608 133.421 22.184C132.781 22.76 132.461 23.8 132.461 25.304V26.408H137.117V31.928ZM172.973 46.616H159.629L157.421 53H150.365L162.413 19.448H170.237L182.285 53H175.181L172.973 46.616ZM171.149 41.24L166.301 27.224L161.453 41.24H171.149ZM193.268 17.48V53H186.548V17.48H193.268ZM231.553 19.496V24.92H217.585V33.512H228.289V38.84H217.585V53H210.865V19.496H231.553ZM234.35 39.608C234.35 36.92 234.878 34.536 235.934 32.456C237.022 30.376 238.478 28.776 240.302 27.656C242.158 26.536 244.222 25.976 246.494 25.976C248.478 25.976 250.206 26.376 251.678 27.176C253.182 27.976 254.382 28.984 255.278 30.2V26.408H262.046V53H255.278V49.112C254.414 50.36 253.214 51.4 251.678 52.232C250.174 53.032 248.43 53.432 246.446 53.432C244.206 53.432 242.158 52.856 240.302 51.704C238.478 50.552 237.022 48.936 235.934 46.856C234.878 44.744 234.35 42.328 234.35 39.608ZM255.278 39.704C255.278 38.072 254.958 36.68 254.318 35.528C253.678 34.344 252.814 33.448 251.726 32.84C250.638 32.2 249.47 31.88 248.222 31.88C246.974 31.88 245.822 32.184 244.766 32.792C243.71 33.4 242.846 34.296 242.174 35.48C241.534 36.632 241.214 38.008 241.214 39.608C241.214 41.208 241.534 42.616 242.174 43.832C242.846 45.016 243.71 45.928 244.766 46.568C245.854 47.208 247.006 47.528 248.222 47.528C249.47 47.528 250.638 47.224 251.726 46.616C252.814 45.976 253.678 45.08 254.318 43.928C254.958 42.744 255.278 41.336 255.278 39.704ZM271.777 23.24C270.593 23.24 269.601 22.872 268.801 22.136C268.033 21.368 267.649 20.424 267.649 19.304C267.649 18.184 268.033 17.256 268.801 16.52C269.601 15.752 270.593 15.368 271.777 15.368C272.961 15.368 273.937 15.752 274.705 16.52C275.505 17.256 275.905 18.184 275.905 19.304C275.905 20.424 275.505 21.368 274.705 22.136C273.937 22.872 272.961 23.24 271.777 23.24ZM275.089 26.408V53H268.369V26.408H275.089ZM287.633 47.48H299.489V53H280.001V47.576L291.617 31.928H280.049V26.408H299.345V31.832L287.633 47.48Z" fill="black"/>
<path d="M39.2 97L27.72 84.28V97H24.08V69.12H27.72V82.04L39.24 69.12H43.84L31.2 83.08L43.96 97H39.2ZM67.8253 85.2C67.8253 85.8933 67.7853 86.6267 67.7053 87.4H50.1853C50.3186 89.56 51.052 91.2533 52.3853 92.48C53.7453 93.68 55.3853 94.28 57.3053 94.28C58.8786 94.28 60.1853 93.92 61.2253 93.2C62.292 92.4533 63.0386 91.4667 63.4653 90.24H67.3853C66.7986 92.3467 65.6253 94.0667 63.8653 95.4C62.1053 96.7067 59.9186 97.36 57.3053 97.36C55.2253 97.36 53.3586 96.8933 51.7053 95.96C50.0786 95.0267 48.7986 93.7067 47.8653 92C46.932 90.2667 46.4653 88.2667 46.4653 86C46.4653 83.7333 46.9186 81.7467 47.8253 80.04C48.732 78.3333 49.9986 77.0267 51.6253 76.12C53.2786 75.1867 55.172 74.72 57.3053 74.72C59.3853 74.72 61.2253 75.1733 62.8253 76.08C64.4253 76.9867 65.652 78.24 66.5053 79.84C67.3853 81.4133 67.8253 83.2 67.8253 85.2ZM64.0653 84.44C64.0653 83.0533 63.7586 81.8667 63.1453 80.88C62.532 79.8667 61.692 79.1067 60.6253 78.6C59.5853 78.0667 58.4253 77.8 57.1453 77.8C55.3053 77.8 53.732 78.3867 52.4253 79.56C51.1453 80.7333 50.412 82.36 50.2253 84.44H64.0653ZM76.87 78.08V91C76.87 92.0667 77.0967 92.8267 77.55 93.28C78.0033 93.7067 78.79 93.92 79.91 93.92H82.59V97H79.31C77.2833 97 75.7633 96.5333 74.75 95.6C73.7367 94.6667 73.23 93.1333 73.23 91V78.08H70.39V75.08H73.23V69.56H76.87V75.08H82.59V78.08H76.87ZM106.24 75.08V97H102.6V93.76C101.907 94.88 100.934 95.76 99.6803 96.4C98.4536 97.0133 97.0936 97.32 95.6003 97.32C93.8936 97.32 92.3603 96.9733 91.0003 96.28C89.6403 95.56 88.5603 94.4933 87.7603 93.08C86.987 91.6667 86.6003 89.9467 86.6003 87.92V75.08H90.2003V87.44C90.2003 89.6 90.747 91.2667 91.8403 92.44C92.9336 93.5867 94.427 94.16 96.3203 94.16C98.267 94.16 99.8003 93.56 100.92 92.36C102.04 91.16 102.6 89.4133 102.6 87.12V75.08H106.24ZM110.826 85.96C110.826 83.72 111.28 81.76 112.186 80.08C113.093 78.3733 114.333 77.0533 115.906 76.12C117.506 75.1867 119.28 74.72 121.226 74.72C123.146 74.72 124.813 75.1333 126.226 75.96C127.64 76.7867 128.693 77.8267 129.386 79.08V75.08H133.066V97H129.386V92.92C128.666 94.2 127.586 95.2667 126.146 96.12C124.733 96.9467 123.08 97.36 121.186 97.36C119.24 97.36 117.48 96.88 115.906 95.92C114.333 94.96 113.093 93.6133 112.186 91.88C111.28 90.1467 110.826 88.1733 110.826 85.96ZM129.386 86C129.386 84.3467 129.053 82.9067 128.386 81.68C127.72 80.4533 126.813 79.52 125.666 78.88C124.546 78.2133 123.306 77.88 121.946 77.88C120.586 77.88 119.346 78.2 118.226 78.84C117.106 79.48 116.213 80.4133 115.546 81.64C114.88 82.8667 114.546 84.3067 114.546 85.96C114.546 87.64 114.88 89.1067 115.546 90.36C116.213 91.5867 117.106 92.5333 118.226 93.2C119.346 93.84 120.586 94.16 121.946 94.16C123.306 94.16 124.546 93.84 125.666 93.2C126.813 92.5333 127.72 91.5867 128.386 90.36C129.053 89.1067 129.386 87.6533 129.386 86ZM153.042 69.12V86.76C153.042 89.24 153.642 91.08 154.842 92.28C156.068 93.48 157.762 94.08 159.922 94.08C162.055 94.08 163.722 93.48 164.922 92.28C166.148 91.08 166.762 89.24 166.762 86.76V69.12H170.402V86.72C170.402 89.04 169.935 91 169.002 92.6C168.068 94.1733 166.802 95.3467 165.202 96.12C163.628 96.8933 161.855 97.28 159.882 97.28C157.908 97.28 156.122 96.8933 154.522 96.12C152.948 95.3467 151.695 94.1733 150.762 92.6C149.855 91 149.402 89.04 149.402 86.72V69.12H153.042ZM202.634 74.68C204.34 74.68 205.86 75.04 207.194 75.76C208.527 76.4533 209.58 77.5067 210.354 78.92C211.127 80.3333 211.514 82.0533 211.514 84.08V97H207.914V84.6C207.914 82.4133 207.367 80.7467 206.274 79.6C205.207 78.4267 203.754 77.84 201.914 77.84C200.02 77.84 198.514 78.4533 197.394 79.68C196.274 80.88 195.714 82.6267 195.714 84.92V97H192.114V84.6C192.114 82.4133 191.567 80.7467 190.474 79.6C189.407 78.4267 187.954 77.84 186.114 77.84C184.22 77.84 182.714 78.4533 181.594 79.68C180.474 80.88 179.914 82.6267 179.914 84.92V97H176.274V75.08H179.914V78.24C180.634 77.0933 181.594 76.2133 182.794 75.6C184.02 74.9867 185.367 74.68 186.834 74.68C188.674 74.68 190.3 75.0933 191.714 75.92C193.127 76.7467 194.18 77.96 194.874 79.56C195.487 78.0133 196.5 76.8133 197.914 75.96C199.327 75.1067 200.9 74.68 202.634 74.68ZM236.725 75.08V97H233.085V93.76C232.391 94.88 231.418 95.76 230.165 96.4C228.938 97.0133 227.578 97.32 226.085 97.32C224.378 97.32 222.845 96.9733 221.485 96.28C220.125 95.56 219.045 94.4933 218.245 93.08C217.471 91.6667 217.085 89.9467 217.085 87.92V75.08H220.685V87.44C220.685 89.6 221.231 91.2667 222.325 92.44C223.418 93.5867 224.911 94.16 226.805 94.16C228.751 94.16 230.285 93.56 231.405 92.36C232.525 91.16 233.085 89.4133 233.085 87.12V75.08H236.725ZM269.031 74.68C270.737 74.68 272.257 75.04 273.591 75.76C274.924 76.4533 275.977 77.5067 276.751 78.92C277.524 80.3333 277.911 82.0533 277.911 84.08V97H274.311V84.6C274.311 82.4133 273.764 80.7467 272.671 79.6C271.604 78.4267 270.151 77.84 268.311 77.84C266.417 77.84 264.911 78.4533 263.791 79.68C262.671 80.88 262.111 82.6267 262.111 84.92V97H258.511V84.6C258.511 82.4133 257.964 80.7467 256.871 79.6C255.804 78.4267 254.351 77.84 252.511 77.84C250.617 77.84 249.111 78.4533 247.991 79.68C246.871 80.88 246.311 82.6267 246.311 84.92V97H242.671V75.08H246.311V78.24C247.031 77.0933 247.991 76.2133 249.191 75.6C250.417 74.9867 251.764 74.68 253.231 74.68C255.071 74.68 256.697 75.0933 258.111 75.92C259.524 76.7467 260.577 77.96 261.271 79.56C261.884 78.0133 262.897 76.8133 264.311 75.96C265.724 75.1067 267.297 74.68 269.031 74.68Z" fill="black"/>
</svg>
